<?xml version="1.0" encoding="utf-8"?>
<!-- Generator: Adobe Illustrator 24.0.3, SVG Export Plug-In . SVG Version: 6.00 Build 0)  -->
<svg version="1.1" id="Layer_1" xmlns="http://www.w3.org/2000/svg" xmlns:xlink="http://www.w3.org/1999/xlink" x="0px" y="0px"
	 viewBox="0 0 1200 1200" style="enable-background:new 0 0 1200 1200;" xml:space="preserve">
<path d="M1072.3,251.2c-0.7,0-1.6,0.3-2.2,0.4c-43,7.8-77.8,26.6-133.1,26.6c-79.9,0-115.1-9-141.8-9c-23,0-136.6,18-150.8,18
	c-56.6-0.1-106.6-18-115.5-18c-8.9,0-70.9,18-124.1,18s-124.2-18-133.1-18c-8.9,0-71.1,18-115.5,18c-45.5,0-102.4-30-133.1-35.6
	c-0.3-0.1-0.4,0-0.8,0c-4.8,0.1-9.1,7.1-12.8,7.1l97.1,264c30.1,5.1,77.3,12.4,94.1,12.8c3.8,0.1,7.2-0.2,10.9-0.4l-10.5-32.2l8.2-3
	l11.2,34.5c29.6-4.1,56-17.1,77.6-23.6c34.9-10.5,121.1,32.2,166.1,25.1l-4.1-9.4l8.2-3.4l4.9,10.9c20.9-6,22.2-16.8,46.5-23.2
	c33.9-9,122.5,24.8,159.8,24.8c0.8,0,1.5,0.1,2.2,0l-2.2-17.6l9-1.1l2.2,18.4c34-2.7,39.5-17.2,77.6-17.2
	c64.4,0,69.1,14.6,90.4,17.2v-8.6h9v9c17.6-1.1,44.5-17.4,119.6-16.1l91.5-259.1C1081.4,252.6,1077,250.9,1072.3,251.2L1072.3,251.2
	z M313.7,517.8c-5.3,0.1-10.4,0.5-15.4,1.5c-27.8,5.6-49.1,18-75,22.9l5.6,16.9l-8.2,2.6l-6-18c-4.5,0.5-9,0.8-13.9,0.8
	c-19.5-0.2-62.7-7-90.4-11.6L152.1,651c2.4-5,5.3-9.9,8.6-15c0.1-0.1,0.3-0.2,0.4-0.4c0-0.1,0-0.3,0-0.4c2.7-4.5,5.6-9,9-13.5
	c0.1-0.2,0.3-0.6,0.4-0.8c4.2-6,8.4-11.5,13.1-16.9l0.4-0.4c3.6-3.8,7-7,10.1-10.1c12.4-12.7,27-23.5,42.8-31.9v-0.4
	c2.1-1.1,4.5-2.3,7.1-3.8c0.2-0.1,0.6-0.3,0.8-0.4c25.8-15.2,54.9-21.4,83.2-22.9l0.8,12l-0.4-12c6.6-0.3,13.2-0.2,19.9,0
	c19.9,0.8,39.7,4,58.9,10.1c11.6,3.8,22.9,8.7,33.8,15h0.4c6.6,4,13.1,7.8,19.9,12.4l0.4,0.4c10.5,7.2,20.1,15.4,28.9,24.4h240.4
	v-63c-10.9,4.2-21,8.7-38.6,10.1l4.1,34.5l-8.6,1.1l-4.5-35.2c-1.1,0-2.2,0-3.4,0c-36.4-0.3-125.6-33.9-159.8-24.8
	c-23.8,6.3-19.2,14.2-43.1,22.1l16.9,38.2l-7.9,3.4l-17.6-39.4c-0.5,0.1-1,0.3-1.5,0.4C428.4,553.7,364.9,516.9,313.7,517.8
	L313.7,517.8z M985.7,525.3c-1.7,1.1-3.3,2.2-4.1,3c-43.5-0.8-64.3,2.3-76.9,6v62.2h55.5L985.7,525.3z M768.6,526.5
	c-11.2,0-19.5,1.5-26.6,3.4v66.8h151.5v-58.1c-7.3,3-13,5.8-25.5,6v44.2h-9v-44.6C832.9,541.7,825.8,526.5,768.6,526.5z
	 M740.1,530.2c-2.7,0.8-5.4,1.7-7.9,2.6v63.8h7.9V530.2z M903.2,534.7c-3,0.9-5.9,2.1-8.2,3v58.9h8.2V534.7z M983.1,544.5
	l-43.5,123.8l114.8,0.4V544.5L983.1,544.5z M736.7,549.7c1.5,0,2.6,1.2,2.6,2.6c0,1.5-1.2,2.6-2.6,2.6s-2.6-1.2-2.6-2.6
	C734.1,550.9,735.2,549.7,736.7,549.7z M899.1,550.5c1.5,0,2.6,1.2,2.6,2.6c0,1.5-1.2,2.6-2.6,2.6s-2.6-1.2-2.6-2.6
	C896.4,551.6,897.6,550.5,899.1,550.5z M336.9,553.5c-20,0.2-40.1,3.7-58.9,10.5c-8.5,3.1-16.8,6.6-24.8,10.9
	c-5.3,2.9-10.8,5.2-15.8,8.6c-6.9,4.4-13.2,9.7-19.5,15c-12.5,11.1-24,23.7-33,37.9c-5.2,7.9-10.1,15.8-14.2,24.4
	c-2.7,5.4-5,11.2-7.1,16.9H32.1v8.6h128.6c-3.1,10.1-5.2,20.6-6.4,31.1c-1.3,7.4-2.1,15-2.2,22.5c0,4.4,0.6,8.7,0.8,13.1
	c0.3,4.8,0.2,9.6,1.1,14.2c0.4,2.6,0.4,5.3,1.1,7.9c1.8,7.7,3.5,15.4,6,22.9c2.1,6.2,4.4,12.8,7.1,18.8c2.2,5.1,5.1,9.6,7.5,14.6
	c3.4,6.9,7.3,13.6,11.6,19.9c6.8,9.8,14.9,18.6,23.6,26.6c10.3,9.5,21.7,18,33.8,25.1c24.7,14.1,52.2,23.4,80.6,25.5
	c1.7,0.2,3.6-0.2,5.2-0.4c6.3-0.1,12.5,0.9,18.8,0.4c4.4-0.4,8.7-0.8,13.1-1.5c5.1-0.6,10.4-0.9,15.4-1.9
	c13.7-2.5,26.8-7.4,39.4-13.5c16-7.6,30.7-17.5,44.2-28.9c13.2-11.3,25.1-24.3,34.5-39c3.9-6.2,7.6-12.7,11.2-19.1
	c5.2-9.5,9-19.6,12-30c6.6-22.9,8.5-47.1,6.8-70.9c-2.1-25.7-8.5-51.6-22.5-73.5c-1.4-2.5-2.8-4.7-4.1-7.1
	c-7.7-13.6-17.8-25.8-29.2-36.4c-3.2-3-6.4-6.1-9.8-9c-5.1-4.2-10.6-8.4-16.1-12c-4.2-3-8.3-5.4-12.8-7.9
	c-5.2-3.2-10.9-5.9-16.5-8.2c-11-5.3-22.3-8.9-34.1-11.6c-7.8-2.1-16.1-2.7-24-3.4C350.2,553.9,343.6,553.4,336.9,553.5z
	 M341.4,574.8c1.5-0.1,3,0,4.5,0c4.5,0,9.1,0.6,13.5,1.1c9.8,1.2,19.5,3.4,28.9,6.4c7.1,2.2,13.9,5,20.6,7.9c1.9,0.8,3.8,2.1,5.6,3
	c-18.6,32.3-37.1,64.8-55.1,97.5c-4.6,8.5-8.8,17.1-13.5,25.5c-1.4-0.4-2.8-0.6-4.1-1.1c-0.6-0.5-0.3-1.6-0.4-2.2
	c0-13.1,0-26.2,0-39.4c-0.1-16.5-0.1-33.1,0-49.5c-0.1-10.8-0.3-21.4,0-32.2C341.5,586.1,341.6,580.4,341.4,574.8z M333.2,575.6
	c-0.4,13.8-0.4,27.5-0.4,41.2c0.1,12.2-0.2,24.5,0,36.8c0.2,20.5,0.3,41,0,61.5c-1.5,0.6-3,1.1-4.5,1.5
	c-5.4-9.2-10.7-18.3-16.1-27.4c-8.3-13.3-16.4-27-24.4-40.5c-10.3-17-20.4-34-30.8-51c6.3-3.9,13.1-6.8,19.9-9.8
	C294.8,580.5,313.8,575.9,333.2,575.6z M898.3,583.1h0.8c1.5,0,2.6,1.1,2.6,2.6c0,1.5-1.2,2.6-2.6,2.6s-2.6-1.2-2.6-2.6
	C896.4,584.4,897.1,583.3,898.3,583.1z M736.7,583.5c1.5,0,2.6,1.1,2.6,2.6c0,1.5-1.2,2.6-2.6,2.6s-2.6-1.2-2.6-2.6
	C734.1,584.6,735.2,583.5,736.7,583.5z M422.1,597.3c0.9,0.4,1.8,0.6,2.6,1.1c13.6,8.3,26.3,18.3,37.1,30
	c6.2,6.7,12.2,13.8,17.2,21.4c-6.1,3.6-12.3,7.7-18.4,11.2c-16.1,9.2-31.7,19.2-47.6,28.5c-18.8,11.3-37.3,22.7-56.2,33.8
	c-1.1-0.9-2.1-1.8-3-3c4.2-8,8.1-16,12.4-24C384.3,663,403.3,630.3,422.1,597.3z M491.8,598.5c2.8,2.9,5.7,6,8.2,9h230.6v-9H491.8z
	 M732.2,598.5v9h7.9v-9H732.2z M741.9,598.5v9h151.5v-9H741.9z M894.9,598.5v9h8.2v-9H894.9z M904.7,598.5v9h51.8l3.4-9H904.7z
	 M916.7,600c1.5,0,2.6,1.2,2.6,2.6c0,1.5-1.2,3-2.6,3s-2.6-1.5-2.6-3C914.1,601.1,915.2,600,916.7,600z M736.3,600.3
	c1.5,0,3,1.2,3,2.6c0,1.5-1.5,2.6-3,2.6s-2.6-1.2-2.6-2.6C733.7,601.5,734.8,600.3,736.3,600.3z M794.1,600.3c1.5,0,3,1.2,3,2.6
	c0,1.5-1.5,2.6-3,2.6s-2.6-1.2-2.6-2.6C791.4,601.5,792.6,600.3,794.1,600.3z M880.7,600.3c1.5,0,2.6,1.2,2.6,2.6c0,1.5-1.2,3-2.6,3
	s-2.6-1.5-2.6-3C878.1,601.5,879.2,600.3,880.7,600.3z M249.6,602.6c1.4,1.1,2,3,3,4.5c6.6,10.8,12.9,21.8,19.5,32.6
	c0.7,1,1.2,2.1,1.1,3.4c0.9,0.3,1.4,1.1,1.9,1.9c8.9,14.8,17.5,29.6,26.6,44.2c6.6,10.6,13.1,21,19.1,31.9c-1.2,1.3-2.2,2.9-3.4,4.1
	c-7.4-4-15.1-7.9-22.5-12c-15.7-8.6-31.3-17.4-46.9-26.2c-0.5-0.3-0.6-0.5-1.1-0.8h24.8v-8.6h-40.1c-3.1-1.8-6.3-3.8-9.4-5.6
	c-8.3-4.9-16.9-9.6-25.1-14.6c3.6-6.3,7.6-12.2,12-18c9.1-11.1,19.2-21.7,30.8-30.4C243,606.8,246.2,604.7,249.6,602.6z M501.6,609
	v0.4c0.9,1.1,1.8,1.9,2.6,3c12.2,15.4,22.4,32.5,30.4,50.6h0.4c6.3,14,11.4,29,13.9,45c0.3,1.6,0.6,3.3,0.8,4.9h115.5
	c0.6-1.2,0.9-2.5,1.5-3.8c2.2-4.7,4.6-9.1,7.5-13.5c2.2-3.8,4.5-7.4,7.1-10.9c3.2-4.7,6.8-9.2,10.5-13.5c2.6-2.8,5.6-5.5,8.2-8.2
	c9-9.2,19.4-17.1,30.8-23.2V609H501.6z M732.2,609.3V639c2-1,4-2.3,6-3.4c0.6-0.3,1.3-0.8,1.9-1.1v-25.1H732.2z M741.9,609.3v24.4
	c18.3-10,39.2-14.7,60-15.8c20.4-0.9,40.9,1.6,60.4,7.9c8.9,2.9,17.5,6.5,25.5,11.2c1.7,1.1,3.9,2.3,5.6,3.4v-31.1H741.9z
	 M894.9,609.3v31.9c2.7,1.6,5.6,3.5,8.2,5.2v-37.1H894.9z M904.7,609.3v38.2c10.6,7.4,20.1,16.4,28.5,26.2l22.9-64.5H904.7z
	 M807.9,624.3c-2.4,0-4.7,0.2-7.1,0.4c-20.9,1.1-42.3,5.7-60.4,16.5c-2,1.1-4,2-6,3c-11.2,5.9-21.5,13.8-30.4,22.9
	c-2.5,2.6-5.1,5.2-7.5,7.9c-3.5,4-6.7,8-9.8,12.4c-2.5,3.3-4.7,6.9-6.8,10.5c-2.7,4.1-5,8.3-7.1,12.8c-4.6,8.8-7.6,18.2-10.1,27.8
	c-1,3.3-1.7,6.8-2.2,10.1h-78.4v26.6h75.8c-0.2,15.8,2.2,31.5,7.1,46.5c2.3,6.9,4.6,13.7,7.9,20.2c2.2,4.3,4.1,9,6.8,13.1
	c3.4,5.7,7.5,11.3,11.6,16.5c8.7,10.4,18.7,20.1,30,27.8c6.3,4.5,12.7,8.4,19.5,12c14.1,7.7,29.5,12.7,45.4,15
	c5.9,1.3,11.9,1.9,18,2.2c3.6,0.1,7.3,0,10.9,0c3.9-0.1,7.8-0.2,11.6-0.8c2.2-0.3,4.3-0.6,6.4-1.1c6.3-1.3,12.6-2.3,18.8-4.1
	c5.1-1.6,10.4-3.2,15.4-5.2c4.2-1.6,8.3-3.8,12.4-5.6c5.6-2.6,10.9-5.7,16.1-9c8.1-5.3,15.4-11.5,22.1-18.4c8-8.1,15.3-17,21.4-26.6
	c12.1-19.7,20.1-41.9,22.5-64.9c0.2-1.4,0.1-2.8,0-4.1c0.1-3.9,0.6-7.8,0.8-11.6h223.1v-26.6h-225c0-0.1,0-0.3,0-0.4
	c-1.7-11.2-5.5-21.9-10.1-32.2c-5.8-13.1-13.6-25.5-22.5-36.8c-8.8-11-19.1-20.9-30.8-28.9c-4.9-3.3-9.9-6.3-15-9.4
	c-7.6-4.5-16-8.2-24.4-10.9C841.7,626.7,824.8,624.3,807.9,624.3L807.9,624.3z M804.9,640.8c0.9-0.1,1.7-0.1,2.6,0
	c-0.7,11.7-0.4,23.9-0.8,35.6c-0.3,21.7-0.7,43.2-1.1,64.9c-0.1,5.2-0.2,10.5-0.4,15.8c-1.1,0.4-1.8,0.9-3,1.1
	c-0.4-0.2-0.9-0.8-1.1-1.1c-3.8-6.6-7-13.3-10.9-19.9c-10.2-17.5-20.1-35.2-30-52.9c-3.9-6.8-7.5-14.1-11.2-21c-1.2-2-2.2-4.2-3.8-6
	c1.3-1.1,3-1.9,4.5-2.6c5.3-2.4,10.6-4.6,16.1-6.4c8.3-3,16.8-5,25.5-6.4C795.9,641.5,800.5,641.2,804.9,640.8z M814.3,640.8
	c3.6-0.1,7,0.3,10.5,0.8c5.6,0.9,11.3,1.8,16.9,3c12.1,3,23.9,6.9,34.5,13.5c-2,2.7-3.4,5.8-5.2,8.6c-4.1,6.6-7.9,13.3-12,19.9
	c-3.6,5.8-7.3,11.8-10.9,17.6c-11.1,17.5-21.1,35.3-31.5,53.2c-1.3-0.2-2.8-0.5-4.1-0.8c0.1-20.2,0.9-40.2,1.1-60.4
	c0.3-14.5,0.4-29,0.8-43.5C814.3,648.8,814.8,644.8,814.3,640.8z M483.6,657c1.4,1.5,2.4,3.4,3.4,5.2c3.2,6.4,6.2,12.8,8.6,19.5
	c4.1,10.1,6.6,20.8,8.6,31.5c0.7,5.4,1.2,10.7,1.9,16.1c0.1,1.1,0.1,2.3,0,3.4c-14.5-0.4-29,0.4-43.5,0.4
	c-26.8,0.5-53.5,0.9-80.2,1.1c-6.5,0-12.7,0.4-19.1,0.4c-0.5-1.3-1.2-2.7-1.5-4.1c0.3-0.5,0.7-0.4,1.1-0.8c8-4.9,16.4-9.6,24.4-14.6
	c21.2-13.2,42.8-25.7,64.1-38.6c8.3-5.1,16.7-9.7,25.1-14.6C478.9,660.2,481.4,659,483.6,657z M739.7,661.1c2.7,5,5.9,10,8.6,15
	c7.1,13.3,14.6,26.2,21.8,39.4c8.7,15.5,17.4,30.8,25.9,46.5c-0.8,0.9-1.3,1.5-2.2,2.2c-6.3-3.6-12.8-6.9-19.1-10.5
	c-26.6-15.5-52.9-31.6-79.1-47.6c0.4-0.7,0.6-1.6,1.1-2.2c7.1-10.8,15.4-21.1,25.1-29.6C727.3,669.3,733.4,665,739.7,661.1z
	 M882.2,661.8c2.3,1.2,4.3,2.6,6.4,4.1c5.4,3.8,10.1,8.3,15,12.8c9.2,8.4,16.8,18.3,23.2,28.9c-5.7,2.8-11.3,6.1-16.9,9
	c-14.5,7.9-29.1,15.6-43.5,23.6c-12.6,7.1-25,14.2-37.5,21.4c-1.1,0.7-2.2,1.4-3.4,1.9c-1-1-2-1.8-3-2.6c2.8-5.6,6-11,9-16.5
	c7.2-12.6,14.8-25.2,22.5-37.5c8.1-13.2,16-26,24.4-39C879.7,665.8,881.4,664,882.2,661.8z M193.3,664.5c6.6,5.2,14.2,8.8,21.4,13.1
	h-27.8C188.8,673.1,190.9,668.7,193.3,664.5z M183.6,686.2h46.5c10.2,6,20.4,11.9,30.8,17.6c17.6,9.8,35,19.6,52.9,28.9
	c-0.4,1.7-0.7,3.5-1.1,5.2c-10.8,0.4-21.4,0.5-32.2,0.8c-11.4,0.3-23,0.2-34.5,0.4c-7.6-0.1-15.3,0.3-22.9,0
	c-16.4,0.1-32.8,0.9-49.1,1.1c-0.4-9.1,0.7-18,2.2-27c1-4.7,2-9.6,3.4-14.2C180.7,694.7,182.1,690.4,183.6,686.2z M691.7,712.1
	c25.7,15.9,51.9,31.5,78,46.9c6.8,3.9,13.5,7.6,20.2,11.6c-0.4,1.1-0.6,2.3-1.1,3.4c-0.4,0.4-0.9-0.1-1.5,0
	c-10.7-0.3-21.2-0.5-31.9-0.8c-13.4-0.3-26.8-0.6-40.1-1.1c-8.8-0.2-17.5-0.6-26.2-1.1c-4.5-0.2-9-0.4-13.5-0.4
	c-0.3-4.9,0.4-9.8,1.1-14.6c1.2-7.9,3.3-15.3,6-22.9c1.9-5.7,4.6-11.5,7.1-16.9C690.5,714.7,690.9,713.5,691.7,712.1z M930.2,714
	c2.8,5.1,5.3,10.4,7.5,15.8c2.6,6.8,4.4,13.9,6,21c1.8,8.3,1.9,16.7,1.9,25.1c-6.5-0.5-12.9-1.2-19.5-1.5
	c-9.9-0.7-19.7-1.1-29.6-1.1c-9.2,0-18.2-0.1-27.4,0c-9.4,0-19.1,0.2-28.5,0c-3.4,0-6.7,0.1-10.1,0c-0.3-1.2-0.9-2.5-1.1-3.8
	c13.1-7.4,26.2-14.8,39.4-22.1c13.1-7.3,26.2-14.3,39.4-21.4C915.4,721.9,922.9,718.1,930.2,714z M528.9,718.1v26.6H653v-26.6H528.9
	z M339.2,735.7c1.6,0,3.2,1,3.8,2.6c1.2,2.8-0.7,6.4-3.8,7.1c-1.5,0.4-3.1,0.5-4.1-0.8c-2-2.4-1.7-6.8,1.1-8.2
	C336.9,736,338.2,735.7,339.2,735.7z M506.4,741c0.3,4.4,0.1,8.8-0.4,13.1c-0.8,6.9-1.7,13.8-3,20.6c-3.3,15-7.6,30.2-15.4,43.5
	c-3.4-2.4-7.3-4.2-10.9-6.4c-8.2-4.8-16.5-9.5-24.8-14.2c-7.3-4.2-14.8-8.2-22.1-12.4c-22-13.1-44.7-25.1-67.1-37.1
	c0.2-1.7,0.5-3.3,0.8-4.9c24.8-0.6,49.8-0.7,74.6-1.1c17.8-0.2,35.8-0.3,53.6-0.4C496.7,741.5,501.5,741.7,506.4,741z M313.3,746.6
	c0.6,1.6,1.4,3.2,1.9,4.9c-14.5,8.9-29.1,18.2-43.9,26.6c-16.4,9.4-32.7,19-48.8,28.9c-9.2,5.8-18.2,11.4-27.4,17.2
	c-3.1-5.2-5.6-10.6-7.9-16.1c-4.5-11.2-8-22.6-10.1-34.5c-1.2-8-2.7-16.2-3-24.4c12.9-0.3,25.8-0.9,38.6-1.1
	c10.8-0.2,21.8-0.3,32.6-0.4c11.9,0.1,23.7-0.2,35.6-0.4C291.9,747.3,302.5,746.5,313.3,746.6z M359.1,756c7,3.3,13.7,7,20.6,10.5
	c15.8,8.4,31.4,16.9,46.9,25.9c16.5,9.5,33.2,19.1,49.5,28.9c2.5,1.4,4.8,3.2,7.5,4.1c-1.4,2.8-3.5,5.2-5.2,7.9
	c-4.5,6.8-9.7,12.9-15,19.1c-10,11.7-22,21.6-34.9,30c-3.7-6.9-7.8-13.5-11.6-20.2c-10.3-17.6-20.3-35.4-30.8-52.9
	c-9.2-15.3-18.5-30.2-27.8-45.4c-0.9-1.3-1.6-2.7-2.2-4.1C357.2,758.5,358,757.3,359.1,756z M320.1,759c0.2,0,0.2,0.3,0.4,0.4
	c1.1,0.7,2.1,1.7,3,2.6c-4.1,7.1-8.2,14-12.4,21c-4.9,8.5-9.5,17-14.2,25.5c-4.6,7.6-8.5,16-13.1,23.6c-8.3,14.4-16.2,29-24.4,43.5
	c-1.5,2.6-3.1,5.2-4.5,7.9c-0.6,0.8,0.5,1.5,0.8,2.2c-3.6-1.5-6.9-3.9-10.1-6c-5-3.4-9.2-7.8-13.9-11.6c-5.2-4.3-10.1-8.9-14.6-13.9
	c-6.4-7-11.6-14.7-16.9-22.5c4.8-3.2,9.8-6.3,14.6-9.4c15.4-9.9,31-19.3,46.9-28.5c7.5-4.4,15.1-8.7,22.5-13.1
	c11.6-6.9,23-14.2,34.5-21.4C319,759.2,319.6,758.9,320.1,759z M348.6,764.6c9.6,15.8,19.8,31.3,29.2,47.2c9.5,15.8,18.5,32,27.8,48
	c5.3,8.9,10,17.8,15.4,26.6c-6.2,3.7-12.6,6.9-19.1,9.8c-8.3,3.4-16.8,6.1-25.5,8.2c-10.1,2.6-20.7,3.5-31.1,3.8
	c0.4-8.1,1.4-16.3,1.5-24.4c0.4-12.2,0.3-24.5,0-36.8c-0.3-11.3-0.3-22.5-0.8-33.8c-0.3-11.6-1.4-23.3-1.5-34.9
	c-0.1-4.2-0.1-8.2,0-12.4C345.9,765.7,347.1,764.9,348.6,764.6z M330.6,765.7c1.7-0.1,3.2,0.5,4.9,0.8c0.5,11.9,0.5,23.7,1.1,35.6
	c0.7,14.8,1,29.9,1.5,44.6c0.2,10.8,0.2,21.4-0.4,32.2c-0.1,9.6-1,19.3-0.8,28.9c-9,0.6-18.1-0.7-27-2.2c-9.6-1.8-18.7-4.6-27.8-8.2
	c-6.8-2.9-13.6-5.4-20.2-8.6c4.2-8.1,8.7-16.3,13.1-24.4c8-14.8,16-29.1,24-43.9c3.6-6.7,7.7-13.2,11.2-19.9
	c4.9-8.9,9.9-17.8,15-26.6C327.1,771.3,328.6,768.2,330.6,765.7z M809.8,773.2c1.9,0.1,3.7,1.5,4.1,3.4c0.3,1.2-0.1,2.9-1.1,3.8
	c-2,1.6-5.3,0.8-6.4-1.5c-0.9-1.7-0.7-4.6,1.5-5.2C808.5,773.4,809.2,773.2,809.8,773.2z M675.9,777.3c11.2,0.7,22.2,1.2,33.4,1.5
	c9.9,0.2,19.7,0.6,29.6,0.8c16.6,0.3,33.3,0.8,49.9,1.5c0.4,1.3,0.8,2.5,1.1,3.8c-7.6,4.1-15.4,8.2-22.9,12.4
	c-11,6.4-21.9,12.6-33,18.8c-14,7.9-28.3,15.6-42.4,23.6c-3-5.2-5.3-10.6-7.5-16.1C678.5,808.8,675.7,793.1,675.9,777.3z M859.7,780
	h9c9,0,18,0.4,27,0.4c8.8,0.1,17.5,0,26.2,0.8c7.8,0.3,15.5,1.5,23.2,1.5c0.3,7.4-0.8,14.6-2.2,21.8c-1.7,7.7-4.3,15.3-7.5,22.5
	c-2.5,5.4-4.8,10.8-7.5,16.1c-6.5-3.6-13.1-7.5-19.5-11.2c-11.8-6.8-23.1-13.8-34.9-20.6c-5.3-3.1-10.8-6.3-16.1-9.4
	c-7.1-4.2-13.9-8.7-21-13.1c-2.1-1.5-4.7-2.8-6.8-4.5c0-1.4,0.9-2.4,1.1-3.8C840.5,780.2,850,780.2,859.7,780z M826.7,790.1
	c5.6,3.5,11.3,7,16.9,10.5c6.8,4.2,13.5,8,20.2,12c6.1,3.9,12.7,7.3,18.8,11.2c11.5,7.1,22.9,14,34.5,21c2.1,1.3,4.3,2.6,6.4,3.8
	c0.7,0.5,1.2-0.2,1.9-0.4c-1.3,2.9-3.1,5.3-4.9,7.9c-2.9,4-6.5,7.2-9.8,10.9c-3.6,4.1-7.8,8.1-12,11.6c-5.8,5-12.3,9-18.8,13.1
	c-2.4-4-4.3-8-6.8-12c-7.7-12.8-15-25.9-22.1-39c-3.4-6.2-6.7-12.2-10.1-18.4c-5.3-9.6-11-19-16.5-28.5c-0.2-0.4-0.4-1.1,0-1.5
	C825.1,791.5,825.9,790.7,826.7,790.1z M793.7,790.8c1,1,2,2,3,3c-3.5,5.9-6.6,12.1-10.1,18c-7.4,12.5-15,24.7-22.5,37.1
	c-4.3,7-8.7,14.1-13.1,21c-4.2,6.6-8.1,13.3-12.4,19.9c-5-3-9.7-6.4-14.2-10.1c-8.8-7.6-16.9-16.3-23.6-25.9
	c-1.7-2.7-3.7-5.1-5.2-7.9c0.9-1.2,2.5-1.5,3.8-2.2c8.9-5,18.1-10,27-15c0.8-0.5,1.6-0.8,2.6-0.8c0.3-0.7,0.8-1.5,1.5-1.9
	c12.2-6.8,24.6-13.6,36.8-20.6C775.8,800.4,784.7,795.4,793.7,790.8z M818.1,796.5c6.9,12,14.1,23.8,20.6,36
	c7.2,13.5,14.5,26.8,22.1,40.1c4.5,7.6,8.6,15.3,13.1,22.9c-4.3,2.4-8.6,4.3-13.1,6c-9.2,3.4-18.8,6.1-28.5,7.5
	c-6.5,0.7-12.9,1.4-19.5,1.5c0.1-10.4-0.2-20.7,0-31.1c0.1-8.8,0.2-17.5,0.4-26.2c0.4-9.7,0.2-19.6,0.4-29.2
	c0.2-8.8,0-17.5,0.4-26.2C815.2,797.1,816.7,796.8,818.1,796.5z M802.7,797.2c1.4,0.3,3.1,0.4,4.5,0.8c0.1,8.8-0.3,17.4-0.4,26.2
	c-0.1,9.3-0.2,18.8-0.4,28.1c-0.3,6.2-0.4,12.2-0.8,18.4c-0.3,13.3-0.2,26.5-0.4,39.8c-7.4,0.1-14.5-0.8-21.8-2.2
	c-3.8-1-7.9-1.8-11.6-3c-9.7-3.1-19.1-6.7-27.8-12c4.4-5.3,7.5-11.5,11.2-17.2c7.6-12.1,15.2-24.5,22.5-36.8
	C786.4,825.2,794.7,811.5,802.7,797.2z"/>
</svg>
