<?xml version="1.0" encoding="utf-8"?>
<!-- Generator: Adobe Illustrator 24.0.3, SVG Export Plug-In . SVG Version: 6.00 Build 0)  -->
<svg version="1.1" id="Layer_1" xmlns="http://www.w3.org/2000/svg" xmlns:xlink="http://www.w3.org/1999/xlink" x="0px" y="0px"
	 viewBox="0 0 700 700" style="enable-background:new 0 0 700 700;" xml:space="preserve">
<g>
	<path d="M567.7,525.4H132.3c-3.4,0-6.1,2.8-6.1,6.1v54.3c0,3.3,2.7,6.1,6.1,6.1h435.4c3.4,0,6.1-2.8,6.1-6.1v-54.3
		C573.8,528.1,571.1,525.4,567.7,525.4L567.7,525.4z M188.4,570.7c-6.7,0-12.1-5.5-12.1-12.2c0-6.7,5.5-12.1,12.1-12.1
		c6.7,0,12.2,5.4,12.2,12.1C200.6,565.3,195.1,570.7,188.4,570.7z M511.5,570.7c-6.7,0-12.1-5.5-12.1-12.2c0-6.7,5.5-12.1,12.1-12.1
		c6.7,0,12.2,5.4,12.2,12.1C523.7,565.3,518.3,570.7,511.5,570.7L511.5,570.7z"/>
	<path d="M567.7,419.5H132.3c-3.4,0-6.1,2.7-6.1,6.1v54.3c0,3.3,2.7,6.1,6.1,6.1h435.4c3.4,0,6.1-2.8,6.1-6.1v-54.3
		C573.8,422.2,571.1,419.5,567.7,419.5z M188.4,464.9c-6.7,0-12.1-5.5-12.1-12.2c0-6.7,5.5-12.1,12.1-12.1c6.7,0,12.2,5.4,12.2,12.1
		C200.6,459.4,195.1,464.9,188.4,464.9z M511.5,464.9c-6.7,0-12.1-5.5-12.1-12.2c0-6.7,5.5-12.1,12.1-12.1c6.7,0,12.2,5.4,12.2,12.1
		C523.7,459.4,518.3,464.9,511.5,464.9L511.5,464.9z"/>
	<path d="M567.7,313.7H132.3c-3.4,0-6.1,2.7-6.1,6.1v54.3c0,3.3,2.7,6.1,6.1,6.1h435.4c3.4,0,6.1-2.8,6.1-6.1v-54.3
		C573.8,316.4,571.1,313.7,567.7,313.7z M188.4,359.1c-6.7,0-12.1-5.5-12.1-12.2c0-6.7,5.5-12.1,12.1-12.1c6.7,0,12.2,5.4,12.2,12.1
		C200.6,353.6,195.1,359.1,188.4,359.1z M511.5,359.1c-6.7,0-12.1-5.5-12.1-12.2c0-6.7,5.5-12.1,12.1-12.1c6.7,0,12.2,5.4,12.2,12.1
		C523.7,353.6,518.3,359.1,511.5,359.1L511.5,359.1z"/>
	<path d="M156.4,498.2h387.2v15H156.4L156.4,498.2z"/>
	<path d="M156.4,392.3h387.2v15H156.4L156.4,392.3z"/>
	<path d="M549.2,301.5H306.9c6.4-60.5,57.5-108,119.1-109.1c-0.6-6.4-1.5-12.9-2.8-19.5c-0.5-0.7-0.8-1.5-0.9-2.4
		c-0.1-0.7,0-1.4-0.1-2c-6.3-27.8-19.9-55.8-47.1-75c-2.8-1.9-3.4-5.8-1.5-8.4c1.9-2.8,5.8-3.5,8.5-1.5
		c21.9,15.4,35.8,35.6,44.4,56.9c4.6-11.8,12.5-22.4,23.2-29.9c19.2-13.6,44.5-16,65.8-6.2c1.9,0.9,3.2,2.8,3.5,4.9
		c2.2,23.4-8.4,46.4-27.6,60.1c-11.3,8-24.8,12.1-38.2,12.1c-5.4,0-10.9-0.7-16.2-2c0.6,4.5,1.2,9,1.6,13.4
		C496.5,198,543.1,243.9,549.2,301.5L549.2,301.5z"/>
	<path d="M298.1,282.1c-1.5,6.2-2.7,12.7-3.3,19.4H153.6c4-15.2,4-32.1-0.2-49.3c-8.2-32.4,11.5-64.9,42.7-73.1
		c-0.9-36.8,16.3-66.5,51.1-88.1c2.8-1.8,6.6-1,8.4,1.9c1.8,2.9,1,6.7-1.9,8.4c-30.6,19.2-45.5,44-45.4,75.6
		c33.6-2.4,62,22.6,65.2,53.6c2.1,17.4,10.4,34.7,24.6,51.4C298,282,298.1,282,298.1,282.1L298.1,282.1z"/>
</g>
</svg>
