<?xml version="1.0" encoding="utf-8"?>
<!-- Generator: Adobe Illustrator 24.0.3, SVG Export Plug-In . SVG Version: 6.00 Build 0)  -->
<svg version="1.1" id="Layer_1" xmlns="http://www.w3.org/2000/svg" xmlns:xlink="http://www.w3.org/1999/xlink" x="0px" y="0px"
	 viewBox="0 0 400 300" style="enable-background:new 0 0 400 300;" xml:space="preserve">
<g>
	<path d="M318.6,167.2h-22.2v8.3h22.2V167.2z M234.8,80.2v14.8c0,0.8-0.3,1.6-0.8,2.1l-9.3,11.4c-0.6,0.7-1.5,1.2-2.4,1.2l-21.2,0.4
		h-0.2l-21.3-0.4c-0.9,0-1.7-0.5-2.3-1.2l-9.5-11.6c-0.5-0.6-0.7-1.2-0.7-2l0,0V81c-1.3-0.2-2.6-0.4-3.7-0.7v18.8l11.1,17l26.3,0.7
		l26.3-0.7l11.1-17V79.2C237.3,79.7,236,80,234.8,80.2L234.8,80.2z M173.2,81v11.3h55.4V80c-1.6-0.3-3-0.7-4.1-1.4
		c-2.7-1.4-4.4-3.5-4.4-6c0-2.6,1.6-4.7,4.4-6c2.1-1.1,4.9-1.7,7.9-1.7s5.8,0.7,7.9,1.7c2.7,1.4,4.4,3.5,4.4,6c0,0.3,0,0.7-0.1,0.9
		v18.7h57c0.3-3.6,1.2-6.9,2.3-9.5c1.9-4.4,4.8-7.1,8.3-7.1s6.3,2.7,8.3,7.1c1.2,2.6,2,5.8,2.3,9.5h33.7V54.8c0-1.2-0.3-2.5-0.9-3.5
		c-0.5-0.9-1.1-1.6-1.7-2.1l-30.4-16.5l-122.6-0.2L78.3,32.7L47.9,49.2c-0.7,0.3-1.3,1.2-1.7,2.1c-0.6,1.2-0.9,2.5-0.9,3.5v37.4
		h41.8c0.3-3.6,1.2-6.9,2.3-9.5c1.9-4.4,4.8-7.1,8.3-7.1s6.3,2.7,8.3,7.1c1.2,2.6,2,5.8,2.3,9.5h49.1v-17c-0.2-0.5-0.2-1.1-0.2-1.6
		c0-2.6,1.6-4.7,4.4-6c2.1-1.1,4.9-1.7,7.9-1.7s5.8,0.7,7.9,1.7c2.7,1.4,4.4,3.5,4.4,6c0,2.6-1.6,4.7-4.4,6
		C176.1,80.2,174.7,80.7,173.2,81L173.2,81z M174.3,95.3l1.6,2h50l1.6-2H174.3z M178.5,100.4l2.6,3.3l19.8,0.4l19.8-0.4l2.6-3.3
		H178.5L178.5,100.4z M26.3,112.3c0.3-0.5,0.8-0.8,1.3-1V51.6c0-2,0-1.2,0-1.4c-0.1-5.7-0.1-8.6,5.5-11.7l19.3-10.7
		c2.8-1.6,4.6-1.5,7.1-1.4c0.2,0,0.5,0,1.4,0l0,0l140-0.1l140,0.2l0,0c0.9,0,1.2,0,1.4,0c2.5-0.1,4.3-0.1,7.1,1.4l19.3,10.7
		c5.5,3,5.5,6,5.5,11.7c0,0.2,0-0.7,0,1.4v61c0.3,0.2,0.7,0.5,0.9,0.8l21.6,28.5c3.3,1.8,3.2,5,3.2,8.8c0,0.8,0-1.9,0,0.7v33.1
		c0,1.7-1.4,3-3,3h-2.2V254c0,5.1,0-0.5,0,1.4c0,10.4,0.1,18.3-11.3,18.3H22.5c-4.6,0-8.2-0.5-10.9-2.3c-3-2-4.4-5.2-4.4-10.5v-73.4
		H3c-1.7,0-3-1.4-3-3v-36.4c0-3,1.3-4.9,3.8-6.1L26.3,112.3L26.3,112.3z M27.6,120.5l-15.1,19.8c1,0,2,0,3.1,0H29
		c-1.3-3.2-1.4-7.5-1.4-13.4V120.5L27.6,120.5z M7.5,147.1L7.5,147.1C7,147.8,6.6,148,6,148.2v20c2.1,0.9,3,0.7,3.5-0.2
		c0.6-0.8,1-2.1,1.6-3.5c1.2-3.1,2.6-6.6,5.8-9c1.8-1.3,3.8-2.1,5.8-2.7c3-1.1,6.1-2.1,6.2-6.3H15.7C12,146.5,9.3,146.8,7.5,147.1
		L7.5,147.1z M387.8,140.5l-13.7-18.1v4.7c0,5.9-0.1,10.2-1.4,13.4H387.8L387.8,140.5z M237.5,72c-1.2-0.7-3-1-5.1-1s-3.9,0.4-5.1,1
		c-0.7,0.3-1,0.5-1,0.6s0.4,0.2,1,0.6c1.2,0.7,3,1,5.1,1s3.9-0.4,5.1-1c0.5-0.2,0.8-0.4,0.9-0.5v-0.2C238.3,72.4,238,72.2,237.5,72z
		 M174.5,73c-1.2-0.7-3-1-5.1-1s-3.9,0.4-5.1,1c-0.3,0.2-0.6,0.3-0.7,0.4v0.3c0.2,0.1,0.4,0.2,0.7,0.4c1.2,0.7,3,1,5.1,1
		s3.9-0.4,5.1-1c0.7-0.3,1-0.5,1-0.6C175.5,73.5,175.1,73.4,174.5,73L174.5,73z M244.6,95.3v2h56.9c0-0.2,0-0.5,0-0.7
		c0-0.4,0-0.8,0-1.2L244.6,95.3L244.6,95.3z M244.6,100.4c0,0.7-0.2,1.2-0.7,1.7l-12.3,19c-0.6,0.9-1.6,1.4-2.6,1.4l-28,0.7h-0.2
		c-9.3-0.2-18.7-0.5-28.1-0.7c-1.1,0-2-0.6-2.5-1.4l-12.5-19.2c-0.3-0.5-0.5-1-0.5-1.5h-49.1c-0.3,3.8-1.2,7.2-2.4,10
		c-1.9,4.4-4.8,7.1-8.3,7.1s-6.3-2.7-8.3-7.1c-1.2-2.7-2-6.2-2.4-10H45.1v26.7c0,6.1,0,10.2,0.3,12.6c0.1,0.3-0.2,0.7-0.6,0.8h311.8
		c-0.2-0.2-0.6-0.4-0.6-0.8c0.3-2.4,0.3-6.5,0.3-12.6v-26.7h-33.7c-0.3,3.8-1.2,7.2-2.4,10c-1.9,4.4-4.8,7.1-8.3,7.1
		s-6.3-2.7-8.3-7.1c-1.2-2.7-2-6.2-2.4-10H244.6L244.6,100.4z M157.3,97.3v-2h-48.9c0,0.4,0,0.8,0,1.2c0,0.2,0,0.5,0,0.7L157.3,97.3
		L157.3,97.3z M86.8,97.3c0-0.2,0-0.5,0-0.7c0-0.4,0-0.8,0-1.2h-53v2L86.8,97.3L86.8,97.3z M100.2,85.2c-0.9-2.1-1.8-3.4-2.6-3.4
		S95.9,83,95,85.2c-1.2,2.9-2,6.8-2,11.4c0,4.5,0.7,8.6,2,11.4c0.9,2.1,1.8,3.4,2.6,3.4s1.7-1.3,2.6-3.4c1.2-2.9,2-6.8,2-11.4
		C102.3,92,101.5,88,100.2,85.2L100.2,85.2z M323,95.3c0,0.4,0,0.8,0,1.2c0,0.2,0,0.5,0,0.7h44.9v-2L323,95.3L323,95.3z M314.9,85.2
		c-0.9-2.1-1.8-3.4-2.6-3.4c-0.8,0-1.7,1.3-2.6,3.4c-1.2,2.9-2,6.8-2,11.4c0,4.5,0.7,8.6,2,11.4c0.9,2.1,1.8,3.4,2.6,3.4
		c0.8,0,1.7-1.3,2.6-3.4c1.2-2.9,2-6.8,2-11.4C316.9,92,316.1,88,314.9,85.2L314.9,85.2z M39.1,100.4h-5.3v26.7
		c0,5.7,0.1,9.5,1.2,11.6c0.5,0.9,1.4,1.6,3,1.8h1.5v-0.1c-0.4-3-0.4-7.2-0.4-13.3V100.4L39.1,100.4z M367.9,100.4h-5.3v26.7
		c0,6.2,0,10.5-0.4,13.3v0.1h1.5c1.6-0.3,2.6-0.9,3-1.8c1.1-2,1.2-5.8,1.2-11.6V100.4z M33.8,92.2h5.3V54.8c0-2.1,0.6-4.4,1.6-6.4
		c1-1.9,2.5-3.6,4.3-4.6l20.4-11.1h-4.5l0,0c-0.2,0-0.9,0-1.6,0c-1.5,0-2.6-0.1-4,0.7L36,44c-2.4,1.3-2.4,3-2.3,6.3l0,0
		c0,1.2,0,0.3,0,1.4L33.8,92.2L33.8,92.2z M362.7,92.2h5.3V51.5c0-1.1,0-0.2,0-1.4l0,0c0-3.3,0-4.9-2.3-6.3l-19.3-10.7
		c-1.3-0.7-2.5-0.7-4-0.7c-0.7,0-1.4,0-1.6,0l0,0h-4.5l20.4,11.1c1.8,1,3.3,2.7,4.3,4.6c1.1,2,1.6,4.4,1.6,6.4L362.7,92.2
		L362.7,92.2z M360.2,146.9H41.5c-1.6,0-2.9-0.1-4.1-0.2H35c0.3,8.4-5,10.3-10.3,12.1c-1.6,0.6-3.2,1.2-4.3,1.9
		c-1.7,1.2-2.7,3.9-3.6,6.2c-0.7,1.6-1.2,3.1-2.1,4.5c-1.9,3-4.4,4.7-8.6,3.5v6.6h82.6c0.2,0,0.2,0,0.4,0v-2.1h-5.5
		c-1.1,0-1.9-0.8-1.9-1.9v-12.2c0-1.1,0.8-1.9,1.9-1.9h26.1c1.1,0,1.9,0.8,1.9,1.9v12.2c0,1.1-0.8,1.9-1.9,1.9H104v2.1h195.7
		c0.2,0,0.4,0,0.6,0.1v-2h-5.7c-1.1,0-1.9-0.8-1.9-1.9v-12.2c0-1.1,0.8-1.9,1.9-1.9h26.1c1.1,0,1.9,0.8,1.9,1.9v12.2
		c0,1.1-0.8,1.9-1.9,1.9h-5.6v2h78.7v-8c-5.3,2.2-8.1,0.5-10.3-2.9c-0.9-1.4-1.5-2.9-2.1-4.5c-0.9-2.4-1.9-4.9-3.6-6.2
		c-1.1-0.7-2.6-1.3-4.3-1.9c-5-1.8-10.1-3.6-10.3-11.1C362.2,146.9,361.2,146.9,360.2,146.9L360.2,146.9z M152.2,202.1
		c-0.3-0.4-0.7-0.8-1.1-1.2c-1.1-0.9-2.2-1.5-3.5-1.5c-1.8,0-3.5,1.2-4.9,3c-1.5,2.1-2.5,5-2.5,8.3s0.9,6.3,2.5,8.3
		c1.3,1.8,3,3,4.9,3c1.2,0,2.2-0.4,3.1-1.2c0.2-0.1,0.3-0.2,0.5-0.4c-1.6-0.6-2.9-1.2-3.6-1.9c-0.9-1-1.6-2.1-2.1-3.1
		c-0.8-2.1-0.9-4.4-0.4-6.4c0.5-2.1,1.5-4,2.8-5.3c0.7-0.7,1.5-1.2,2.3-1.5c0.4-0.2,0.8-0.2,1.2-0.2L152.2,202.1L152.2,202.1z
		 M158,222c-1,1.5-2.1,2.8-3.5,3.8c-2,1.6-4.4,2.4-6.8,2.4c-3.9,0-7.3-2.1-9.8-5.4c-2.2-3.1-3.6-7.3-3.6-11.9s1.4-8.8,3.6-11.9
		c2.5-3.4,5.9-5.4,9.8-5.4c2.8,0,5.4,1.1,7.6,3c1.8,1.6,3.2,3.6,4.3,6.1c6.9,0.3,13.7,0.6,20.2,0.7c8.6,0.2,16.9,0.4,24.5,0.4
		c7.7,0,16-0.2,24.5-0.4c6.2-0.2,12.6-0.4,19.2-0.7c1-2.3,2.5-4.3,4.1-5.8c2.1-1.9,4.8-3,7.6-3c3.9,0,7.3,2.1,9.8,5.4
		c2.2,3.1,3.6,7.3,3.6,11.9s-1.4,8.8-3.6,11.9c-2.5,3.4-5.9,5.4-9.8,5.4c-2.6,0-4.9-0.9-6.8-2.4c-1.3-1-2.6-2.4-3.5-4
		c-2.2,0.3-4.6,0.6-7.1,0.8c-14.7,1.3-34,1.6-37.9,1.5c-4,0.1-23.3-0.2-37.9-1.5C163.3,222.8,160.5,222.4,158,222L158,222z
		 M256,220.9c0.2,0.2,0.3,0.2,0.5,0.4c1,0.7,2.1,1.2,3.1,1.2c1.8,0,3.5-1.2,4.9-3c1.5-2.1,2.5-5,2.5-8.3s-0.9-6.3-2.5-8.3
		c-1.3-1.8-3-3-4.9-3c-1.2,0-2.5,0.5-3.5,1.5c-0.3,0.2-0.6,0.6-0.8,0.8l1.3-0.1c0.5-0.1,0.9,0,1.4,0.2c0.8,0.3,1.6,0.8,2.3,1.5
		c1.3,1.3,2.3,3.2,2.8,5.3c0.5,2.1,0.4,4.4-0.4,6.4c-0.4,1.2-1.1,2.2-2.1,3.1C259.8,219.5,258.2,220.2,256,220.9L256,220.9z
		 M204.3,218.4c3.7,0.1,22.9-0.2,37.4-1.5c7.7-0.7,13.7-1.6,14.7-2.6c0.3-0.3,0.6-0.7,0.7-1.2c0.3-0.9,0.3-1.9,0.2-2.9
		c-0.2-0.9-0.6-1.6-1.1-2.1c-9.2,0.5-18.3,0.8-27.2,1.1c-8.6,0.2-16.9,0.4-24.7,0.4c-7.8,0-16.1-0.2-24.7-0.4
		c-8.8-0.2-17.9-0.6-27.2-1.1c-0.5,0.5-0.8,1.2-1.1,2.1c-0.2,0.9-0.2,2,0.2,2.9c0.2,0.4,0.4,0.8,0.7,1.2c1,1,7,1.8,14.7,2.6
		C181.4,218.1,200.5,218.4,204.3,218.4L204.3,218.4L204.3,218.4z M304,179.5v26.3h7.2v-26.3H304z M300.1,190.5c-0.1,0-0.1,0-0.2,0
		h-9.4v29.6h48.3v-29.6h-23.2c-0.2,0-0.4,0-0.7-0.1v17.2c0,1.1-0.8,1.9-1.9,1.9h-11.1c-1.1,0-1.9-0.8-1.9-1.9v-17.1H300.1z
		 M296.5,195.5c-0.1,0-0.2,0.1-0.3,0.1l0,0c-0.1,0.1-0.1,0.2-0.1,0.3c0,0.2,0.1,0.2,0.1,0.3l0,0c0.1,0.1,0.2,0.1,0.3,0.1
		c0.2,0,0.2-0.1,0.3-0.1l0,0c0.1-0.1,0.1-0.2,0.1-0.3c0-0.2-0.1-0.2-0.1-0.3l0,0C296.7,195.5,296.6,195.5,296.5,195.5z M294.6,194
		L294.6,194c0.5-0.5,1.2-0.8,1.9-0.8c0.7,0,1.4,0.3,1.9,0.8l0,0c0.5,0.5,0.8,1.2,0.8,1.9c0,0.7-0.3,1.4-0.8,1.9l0,0
		c-0.5,0.5-1.2,0.8-1.9,0.8c-0.7,0-1.4-0.3-1.9-0.8l0,0c-0.5-0.5-0.8-1.2-0.8-1.9C293.8,195.1,294.1,194.5,294.6,194z M296.4,215.4
		c-0.1,0-0.2,0.1-0.3,0.1l0,0c-0.1,0.1-0.1,0.2-0.1,0.3c0,0.2,0.1,0.2,0.1,0.3l0,0c0.1,0.1,0.2,0.1,0.3,0.1c0.2,0,0.2-0.1,0.3-0.1
		l0,0c0.1-0.1,0.1-0.2,0.1-0.3c0-0.2-0.1-0.2-0.1-0.3l0,0C296.7,215.4,296.6,215.4,296.4,215.4z M294.6,213.9L294.6,213.9
		c0.5-0.5,1.2-0.8,1.9-0.8c0.7,0,1.4,0.3,1.9,0.8l0,0c0.5,0.5,0.8,1.2,0.8,1.9c0,0.7-0.3,1.4-0.8,1.9l0,0c-0.5,0.5-1.2,0.8-1.9,0.8
		c-0.7,0-1.4-0.3-1.9-0.8l0,0c-0.5-0.5-0.8-1.2-0.8-1.9S294.1,214.4,294.6,213.9z M333.8,195.2c-0.1,0-0.2,0.1-0.3,0.1l0,0
		c-0.1,0.1-0.1,0.2-0.1,0.3c0,0.2,0.1,0.2,0.1,0.3l0,0c0.1,0.1,0.2,0.1,0.3,0.1c0.2,0,0.2-0.1,0.3-0.1l0,0c0.1-0.1,0.1-0.2,0.1-0.3
		c0-0.2-0.1-0.2-0.1-0.3l0,0C334,195.2,333.9,195.2,333.8,195.2z M331.8,193.8L331.8,193.8c0.5-0.5,1.2-0.8,1.9-0.8
		c0.7,0,1.4,0.3,1.9,0.8l0,0c0.5,0.5,0.8,1.2,0.8,1.9c0,0.7-0.3,1.4-0.8,1.9l0,0c-0.5,0.5-1.2,0.8-1.9,0.8c-0.7,0-1.4-0.3-1.9-0.8
		l0,0c-0.5-0.5-0.8-1.2-0.8-1.9C331,195,331.3,194.1,331.8,193.8L331.8,193.8z M333.7,215c-0.1,0-0.2,0.1-0.3,0.1l0,0
		c-0.1,0.1-0.1,0.2-0.1,0.3c0,0.2,0.1,0.2,0.1,0.3l0,0c0.1,0.1,0.2,0.1,0.3,0.1c0.2,0,0.2-0.1,0.3-0.1l0,0c0.1-0.1,0.1-0.2,0.1-0.3
		c0-0.2-0.1-0.2-0.1-0.3l0,0C334,215,333.9,215,333.7,215z M331.8,213.5L331.8,213.5c0.5-0.5,1.2-0.8,1.9-0.8c0.7,0,1.4,0.3,1.9,0.8
		l0,0c0.5,0.5,0.8,1.2,0.8,1.9c0,0.7-0.3,1.4-0.8,1.9l0,0c-0.5,0.5-1.2,0.8-1.9,0.8c-0.7,0-1.4-0.3-1.9-0.8l0,0
		c-0.5-0.5-0.8-1.2-0.8-1.9C331,214.8,331.3,214,331.8,213.5L331.8,213.5z M284.4,187.5H119.7V223c0,1.7-1.4,3-3,3H62.1
		c-1.7,0-3-1.4-3-3v-35.5H13.3v51.6c4.8-1.7,7.5,0,9.5,3.2c0.9,1.4,1.5,2.9,2.1,4.5c0.9,2.4,1.9,4.9,3.6,6.2
		c1.1,0.7,2.6,1.3,4.3,1.9c5.3,1.9,10.8,3.8,10.3,12.6h315.4c-0.6-8.9,4.9-10.9,10.2-12.8c1.6-0.6,3.2-1.2,4.3-1.9
		c1.7-1.2,2.7-3.9,3.6-6.2c0.7-1.6,1.2-3.1,2.1-4.5c2.1-3.2,4.8-4.9,9.6-3.2v-51.4h-43.4v35.6c0,1.7-1.4,3-3,3h-54.5
		c-1.7,0-3-1.4-3-3L284.4,187.5L284.4,187.5z M92.8,179.2v26.3h7.2v-26.3H92.8z M107.6,167H85.3v8.3h22.3V167z M89,190.2
		c-0.2,0-0.4,0.1-0.7,0.1H65.1V220h48.3v-29.6h-9.5c-0.1,0-0.1,0-0.2,0v17.1c0,1.1-0.8,1.9-1.9,1.9H90.7c-1.1,0-1.9-0.8-1.9-1.9
		L89,190.2L89,190.2z M107.6,193c0.7,0,1.4,0.3,1.9,0.8l0,0c0.5,0.5,0.8,1.2,0.8,1.9c0,0.7-0.3,1.4-0.8,1.9l0,0
		c-0.5,0.5-1.2,0.8-1.9,0.8s-1.4-0.3-1.9-0.8l0,0c-0.5-0.5-0.8-1.2-0.8-1.9c0-0.7,0.3-1.4,0.8-1.9l0,0
		C106.2,193.4,106.8,193,107.6,193z M107.8,195.4c-0.1-0.1-0.2-0.1-0.3-0.1c-0.2,0-0.2,0.1-0.3,0.1l0,0c-0.1,0.1-0.1,0.2-0.1,0.3
		c0,0.2,0.1,0.2,0.1,0.3l0,0c0.1,0.1,0.2,0.1,0.3,0.1c0.2,0,0.2-0.1,0.3-0.1l0,0c0.1-0.1,0.1-0.2,0.1-0.3
		C107.9,195.5,107.9,195.5,107.8,195.4L107.8,195.4z M107.6,212.9c0.7,0,1.4,0.3,1.9,0.8l0,0c0.5,0.5,0.8,1.2,0.8,1.9
		c0,0.7-0.3,1.4-0.8,1.9l0,0c-0.5,0.5-1.2,0.8-1.9,0.8s-1.4-0.3-1.9-0.8l0,0c-0.5-0.5-0.8-1.2-0.8-1.9c0-0.7,0.3-1.4,0.8-1.9l0,0
		C106.2,213.1,106.8,212.9,107.6,212.9z M107.9,215.4c-0.1-0.1-0.2-0.1-0.3-0.1c-0.2,0-0.2,0.1-0.3,0.1l0,0
		c-0.1,0.1-0.1,0.2-0.1,0.3c0,0.2,0.1,0.2,0.1,0.3l0,0c0.1,0.1,0.2,0.1,0.3,0.1c0.2,0,0.2-0.1,0.3-0.1l0,0c0.1-0.1,0.1-0.2,0.1-0.3
		C108,215.5,108,215.4,107.9,215.4L107.9,215.4z M70.3,192.8c0.7,0,1.4,0.3,1.9,0.8l0,0c0.5,0.5,0.8,1.2,0.8,1.9
		c0,0.7-0.3,1.4-0.8,1.9l0,0c-0.5,0.5-1.2,0.8-1.9,0.8s-1.4-0.3-1.9-0.8l0,0c-0.5-0.5-0.8-1.2-0.8-1.9c0-0.7,0.3-1.4,0.8-1.9l0,0
		C68.9,193,69.5,192.8,70.3,192.8z M70.5,195.2c-0.1-0.1-0.2-0.1-0.3-0.1s-0.2,0.1-0.3,0.1l0,0c-0.1,0.1-0.1,0.2-0.1,0.3
		s0.1,0.2,0.1,0.3l0,0c0.1,0.1,0.2,0.1,0.3,0.1s0.2-0.1,0.3-0.1l0,0c0.1-0.1,0.1-0.2,0.1-0.3S70.7,195.4,70.5,195.2L70.5,195.2z
		 M70.3,212.6c0.7,0,1.4,0.3,1.9,0.8l0,0c0.5,0.5,0.8,1.2,0.8,1.9s-0.3,1.4-0.8,1.9l0,0c-0.5,0.5-1.2,0.8-1.9,0.8s-1.4-0.3-1.9-0.8
		l0,0c-0.5-0.5-0.8-1.2-0.8-1.9s0.3-1.4,0.8-1.9l0,0C68.9,213,69.5,212.6,70.3,212.6z M70.6,215c-0.1-0.1-0.2-0.1-0.3-0.1
		c-0.2,0-0.2,0.1-0.3,0.1l0,0c-0.1,0.1-0.1,0.2-0.1,0.3c0,0.2,0.1,0.2,0.1,0.3l0,0c0.1,0.1,0.2,0.1,0.3,0.1c0.2,0,0.2-0.1,0.3-0.1
		l0,0c0.1-0.1,0.1-0.2,0.1-0.3S70.7,215.1,70.6,215L70.6,215z M369.4,146.5c0.4,3.5,3.3,4.5,6.1,5.5c2.1,0.7,4,1.4,5.8,2.7
		c3.2,2.3,4.5,5.8,5.8,9c0.5,1.3,1,2.6,1.6,3.5c0.7,1,1.9,1.2,5.1-0.7v-15.1c0-2.1,0,0.7,0-0.7c0-2.3,0-4.1-5.4-4.1L369.4,146.5z
		 M13.2,245.9V261c0,3,0.6,4.6,1.7,5.3c1.4,1,4,1.2,7.5,1.2h14.5c0.2-4.6-3-5.7-6.2-6.8c-2.1-0.7-4-1.4-5.8-2.7
		c-3.2-2.3-4.5-5.8-5.8-9c-0.5-1.3-1-2.6-1.6-3.5C17,244.8,15.9,244.5,13.2,245.9L13.2,245.9z M364.7,267.5h18.6
		c5.2,0,5.2-5.3,5.2-12.1c0-2.8,0,2.8,0-1.4v-8.3c-2.7-1.5-3.9-1.2-4.4-0.2c-0.6,0.8-1,2.1-1.6,3.5c-1.2,3.1-2.6,6.6-5.8,9
		c-1.8,1.3-3.8,2.1-5.8,2.7C367.6,261.9,364.3,262.9,364.7,267.5L364.7,267.5z"/>
</g>
</svg>
