<?xml version="1.0" encoding="utf-8"?>
<!-- Generator: Adobe Illustrator 24.0.3, SVG Export Plug-In . SVG Version: 6.00 Build 0)  -->
<svg version="1.1" id="Layer_1" xmlns="http://www.w3.org/2000/svg" xmlns:xlink="http://www.w3.org/1999/xlink" x="0px" y="0px"
	 viewBox="0 0 700 700" style="enable-background:new 0 0 700 700;" xml:space="preserve">
<g>
	<path d="M492,358.2H465v10.1H492V358.2z M390.2,252.4v18c0,1-0.4,1.9-1,2.6l-11.3,13.9c-0.7,0.9-1.8,1.4-2.9,1.4l-25.7,0.5H349
		l-25.9-0.5c-1.1,0-2.1-0.6-2.8-1.4l-11.5-14.1c-0.6-0.7-0.8-1.5-0.8-2.4h0v-16.8c-1.6-0.2-3.1-0.5-4.5-0.9v22.9l13.5,20.7l32,0.8
		l32-0.8l13.5-20.7v-24.2C393.3,251.8,391.7,252.2,390.2,252.4L390.2,252.4z M315.4,253.3V267h67.3v-14.8c-1.9-0.4-3.6-0.9-5-1.7
		c-3.3-1.7-5.3-4.3-5.3-7.3c0-3.1,2-5.7,5.3-7.3c2.5-1.3,5.9-2.1,9.6-2.1c3.7,0,7.1,0.8,9.6,2.1c3.3,1.7,5.3,4.3,5.3,7.3
		c0,0.4,0,0.8-0.1,1.1V267h69.3c0.4-4.4,1.4-8.4,2.8-11.5c2.3-5.3,5.8-8.6,10.1-8.6c4.2,0,7.7,3.3,10.1,8.6
		c1.4,3.2,2.4,7.1,2.8,11.5h40.9v-45.5c0-1.4-0.4-3-1.1-4.3c-0.6-1.1-1.3-2-2.1-2.5l-36.9-20l-149-0.2l-149,0.2l-36.9,20
		c-0.8,0.4-1.6,1.4-2.1,2.5c-0.7,1.4-1.1,3-1.1,4.3V267h50.8c0.4-4.4,1.4-8.4,2.8-11.5c2.3-5.3,5.8-8.6,10.1-8.6
		c4.2,0,7.7,3.3,10.1,8.6c1.4,3.2,2.4,7.1,2.8,11.5h59.7v-20.6c-0.2-0.6-0.3-1.3-0.3-2c0-3.1,2-5.7,5.3-7.3c2.5-1.3,5.9-2.1,9.6-2.1
		s7.1,0.8,9.6,2.1c3.3,1.7,5.3,4.3,5.3,7.3c0,3.1-2,5.7-5.3,7.3C318.9,252.4,317.2,253,315.4,253.3L315.4,253.3z M316.7,270.7l2,2.4
		h60.7l2-2.4H316.7z M321.8,276.9l3.2,4l24.1,0.5l24.1-0.5l3.2-4H321.8L321.8,276.9z M136.9,291.4c0.4-0.6,1-1,1.6-1.2v-72.5
		c0-2.4,0-1.4,0-1.7c-0.1-6.9-0.1-10.5,6.7-14.2l23.4-13c3.4-1.9,5.6-1.8,8.6-1.7c0.3,0,0.6,0,1.7,0v0L349,187l170.1,0.2v0
		c1.1,0,1.4,0,1.7,0c3-0.1,5.2-0.1,8.6,1.7l23.4,13c6.7,3.7,6.7,7.3,6.7,14.2c0,0.3,0-0.8,0,1.7v74.1c0.4,0.2,0.8,0.6,1.1,1
		l26.3,34.6c4,2.2,3.9,6.1,3.9,10.7c0,1,0-2.3,0,0.8v40.2c0,2.1-1.7,3.7-3.7,3.7h-2.7v80.8c0,6.2,0-0.6,0,1.7
		c0,12.6,0.1,22.2-13.7,22.2H132.2c-5.6,0-10-0.6-13.2-2.8c-3.6-2.4-5.4-6.3-5.4-12.7v-89.2h-5.1c-2.1,0-3.7-1.7-3.7-3.7V335
		c0-3.6,1.6-6,4.6-7.4L136.9,291.4L136.9,291.4z M138.5,301.5l-18.4,24.1c1.2,0,2.4,0,3.8,0h16.3c-1.6-3.9-1.7-9.1-1.7-16.3
		L138.5,301.5L138.5,301.5z M114,333.8l-0.1,0.1c-0.5,0.6-1,1-1.7,1.2v24.3c2.5,1.1,3.6,0.8,4.3-0.2c0.7-1,1.2-2.6,1.9-4.2
		c1.5-3.8,3.1-8,7-10.9c2.2-1.6,4.6-2.5,7.1-3.3c3.7-1.3,7.4-2.6,7.5-7.7h-16C119.5,333.1,116.2,333.3,114,333.8L114,333.8z
		 M576.1,325.6l-16.7-22v5.7c0,7.2-0.1,12.4-1.7,16.3L576.1,325.6L576.1,325.6z M393.5,242.4c-1.5-0.8-3.7-1.2-6.2-1.2
		s-4.7,0.5-6.2,1.2c-0.8,0.4-1.2,0.6-1.2,0.7s0.5,0.3,1.2,0.7c1.5,0.8,3.7,1.2,6.2,1.2s4.7-0.5,6.2-1.2c0.6-0.3,1-0.5,1.1-0.6v-0.2
		C394.5,242.9,394.1,242.7,393.5,242.4z M316.9,243.7c-1.5-0.8-3.7-1.2-6.2-1.2c-2.5,0-4.7,0.5-6.2,1.2c-0.4,0.2-0.7,0.4-0.9,0.5
		v0.4c0.2,0.1,0.5,0.3,0.9,0.5c1.5,0.8,3.7,1.2,6.2,1.2c2.5,0,4.7-0.5,6.2-1.2c0.8-0.4,1.2-0.6,1.2-0.7S317.7,244.1,316.9,243.7
		L316.9,243.7z M402.1,270.7v2.4h69.1c0-0.3,0-0.6,0-0.9c0-0.5,0-1,0-1.5H402.1z M402.1,276.9c0,0.8-0.3,1.5-0.8,2.1l-15,23.1
		c-0.7,1.1-1.9,1.7-3.1,1.7l-34,0.9H349c-11.3-0.2-22.7-0.6-34.1-0.9c-1.3,0-2.4-0.7-3-1.7l-15.2-23.3c-0.4-0.6-0.6-1.2-0.6-1.8
		h-59.6c-0.4,4.6-1.4,8.8-2.9,12.1c-2.3,5.3-5.8,8.6-10.1,8.6c-4.2,0-7.7-3.3-10.1-8.6c-1.4-3.3-2.4-7.5-2.9-12.1h-50.8v32.5
		c0,7.4,0,12.4,0.4,15.3c0.1,0.4-0.3,0.8-0.7,1h378.8c-0.3-0.2-0.7-0.5-0.7-1c0.4-2.9,0.4-7.9,0.4-15.3v-32.5h-40.9
		c-0.4,4.6-1.4,8.8-2.9,12.1c-2.3,5.3-5.8,8.6-10.1,8.6c-4.2,0-7.7-3.3-10.1-8.6c-1.4-3.3-2.4-7.5-2.9-12.1H402.1L402.1,276.9z
		 M296.1,273.1v-2.4h-59.4c0,0.5,0,1,0,1.5c0,0.3,0,0.6,0,0.9H296.1L296.1,273.1z M210.4,273.1c0-0.3,0-0.6,0-0.9c0-0.5,0-1,0-1.5
		H146v2.4H210.4z M226.7,258.4c-1.1-2.5-2.2-4.1-3.2-4.1s-2.1,1.6-3.2,4.1c-1.5,3.5-2.4,8.3-2.4,13.8c0,5.5,0.9,10.4,2.4,13.8
		c1.1,2.5,2.2,4.1,3.2,4.1s2.1-1.6,3.2-4.1c1.5-3.5,2.4-8.3,2.4-13.8C229.2,266.7,228.2,261.8,226.7,258.4L226.7,258.4z
		 M497.4,270.7c0,0.5,0,1,0,1.5c0,0.3,0,0.6,0,0.9h54.5v-2.4H497.4z M487.5,258.4c-1.1-2.5-2.2-4.1-3.2-4.1s-2.1,1.6-3.2,4.1
		c-1.5,3.5-2.4,8.3-2.4,13.8c0,5.5,0.9,10.4,2.4,13.8c1.1,2.5,2.2,4.1,3.2,4.1s2.1-1.6,3.2-4.1c1.5-3.5,2.4-8.3,2.4-13.8
		C489.9,266.7,489,261.8,487.5,258.4L487.5,258.4z M152.4,276.9H146v32.5c0,6.9,0.1,11.6,1.4,14.1c0.6,1.1,1.7,1.9,3.7,2.2h1.8
		l0-0.1c-0.5-3.6-0.5-8.7-0.5-16.2L152.4,276.9L152.4,276.9z M551.9,276.9h-6.4v32.5c0,7.5,0,12.7-0.5,16.2l0,0.1h1.8
		c1.9-0.4,3.1-1.1,3.7-2.2c1.3-2.4,1.4-7.1,1.4-14.1L551.9,276.9z M146,267h6.4v-45.5c0-2.5,0.7-5.3,1.9-7.8c1.2-2.3,3-4.4,5.2-5.6
		l24.8-13.5l-5.5,0v0c-0.2,0-1.1,0-1.9,0c-1.8,0-3.2-0.1-4.8,0.8l-23.4,13c-2.9,1.6-2.9,3.7-2.8,7.7v0c0,1.4,0,0.4,0,1.7L146,267
		L146,267z M545.6,267h6.4v-49.3c0-1.3,0-0.3,0-1.7v0c0-4,0-6-2.8-7.7l-23.4-13c-1.6-0.9-3-0.8-4.8-0.8c-0.8,0-1.7,0-1.9,0v0l-5.5,0
		l24.8,13.5c2.2,1.2,4,3.3,5.2,5.6c1.3,2.4,1.9,5.3,1.9,7.8L545.6,267L545.6,267z M542.6,333.4H155.4c-1.9,0-3.5-0.1-5-0.3h-2.9
		c0.4,10.2-6.1,12.5-12.5,14.7c-2,0.7-3.9,1.4-5.2,2.3c-2.1,1.5-3.3,4.7-4.4,7.5c-0.8,2-1.5,3.8-2.6,5.5c-2.3,3.6-5.3,5.7-10.5,4.2
		v8h100.3c0.2,0,0.3,0,0.5,0v-2.6h-6.7c-1.3,0-2.3-1-2.3-2.3v-14.8c0-1.3,1-2.3,2.3-2.3h31.7c1.3,0,2.3,1,2.3,2.3v14.8
		c0,1.3-1,2.3-2.3,2.3h-6.9v2.6h237.8c0.2,0,0.5,0,0.7,0.1V373h-6.9c-1.3,0-2.3-1-2.3-2.3v-14.8c0-1.3,1-2.3,2.3-2.3h31.7
		c1.3,0,2.3,1,2.3,2.3v14.8c0,1.3-1,2.3-2.3,2.3h-6.7v2.4h95.6v-9.7c-6.4,2.7-9.9,0.6-12.5-3.5c-1.1-1.7-1.8-3.5-2.6-5.5
		c-1.1-2.9-2.3-6-4.4-7.5c-1.3-0.9-3.2-1.6-5.2-2.3c-6.1-2.2-12.3-4.4-12.5-13.5C545,333.4,543.8,333.4,542.6,333.4L542.6,333.4z
		 M289.9,400.6c-0.4-0.5-0.8-1-1.3-1.4c-1.3-1.1-2.7-1.8-4.3-1.8c-2.2,0-4.3,1.4-5.9,3.6c-1.8,2.5-3,6.1-3,10.1c0,4,1.1,7.6,3,10.1
		c1.6,2.2,3.7,3.6,5.9,3.6c1.4,0,2.7-0.5,3.8-1.4c0.2-0.1,0.4-0.3,0.6-0.5c-2-0.7-3.5-1.4-4.4-2.3c-1.1-1.2-1.9-2.5-2.5-3.8
		c-1-2.5-1.1-5.3-0.5-7.8c0.6-2.5,1.8-4.8,3.4-6.4c0.8-0.8,1.8-1.4,2.8-1.8c0.5-0.2,1-0.3,1.5-0.3L289.9,400.6L289.9,400.6z
		 M296.9,424.7c-1.2,1.8-2.6,3.4-4.2,4.6c-2.4,1.9-5.3,2.9-8.3,2.9c-4.7,0-8.9-2.5-11.9-6.6c-2.7-3.8-4.4-8.9-4.4-14.5
		c0-5.6,1.7-10.7,4.4-14.5c3-4.1,7.2-6.6,11.9-6.6c3.4,0,6.6,1.3,9.2,3.6c2.2,1.9,3.9,4.4,5.2,7.4c8.4,0.4,16.6,0.7,24.5,0.9
		c10.5,0.3,20.5,0.5,29.8,0.5c9.4,0,19.4-0.2,29.8-0.5c7.5-0.2,15.3-0.5,23.3-0.9c1.2-2.8,3-5.2,5-7c2.6-2.3,5.8-3.6,9.2-3.6
		c4.7,0,8.9,2.5,11.9,6.6c2.7,3.8,4.4,8.9,4.4,14.5c0,5.6-1.7,10.7-4.4,14.5c-3,4.1-7.2,6.6-11.9,6.6c-3.1,0-5.9-1.1-8.3-2.9
		c-1.6-1.2-3.1-2.9-4.3-4.8c-2.7,0.4-5.6,0.7-8.6,1c-17.8,1.6-41.3,1.9-46.1,1.8c-4.8,0.1-28.3-0.2-46.1-1.8
		C303.3,425.6,299.9,425.2,296.9,424.7L296.9,424.7z M416,423.3c0.2,0.2,0.4,0.3,0.6,0.5c1.2,0.9,2.5,1.4,3.8,1.4
		c2.2,0,4.3-1.4,5.9-3.6c1.8-2.5,3-6.1,3-10.1c0-4-1.1-7.6-3-10.1c-1.6-2.2-3.7-3.6-5.9-3.6c-1.5,0-3,0.6-4.3,1.8
		c-0.4,0.3-0.7,0.7-1,1l1.6-0.1c0.6-0.1,1.1,0,1.7,0.2c1,0.4,2,1,2.8,1.8c1.6,1.6,2.8,3.9,3.4,6.4c0.6,2.5,0.5,5.3-0.5,7.8
		c-0.5,1.4-1.3,2.7-2.5,3.8C420.6,421.7,418.6,422.6,416,423.3L416,423.3z M353.1,420.3c4.5,0.1,27.8-0.2,45.4-1.8
		c9.3-0.8,16.6-1.9,17.8-3.1c0.4-0.4,0.7-0.9,0.9-1.4c0.4-1.1,0.4-2.3,0.2-3.5c-0.3-1.1-0.7-2-1.3-2.6c-11.2,0.6-22.2,1-33,1.3
		c-10.5,0.3-20.5,0.5-30,0.5c-9.5,0-19.6-0.2-30-0.5c-10.7-0.3-21.8-0.7-33-1.3c-0.6,0.6-1,1.5-1.3,2.6c-0.3,1.1-0.3,2.4,0.2,3.5
		c0.2,0.5,0.5,1,0.9,1.4c1.2,1.2,8.5,2.2,17.8,3.1c17.6,1.6,40.8,1.8,45.4,1.8H353.1L353.1,420.3z M474.3,373v31.9h8.8V373H474.3z
		 M469.6,386.4c-0.1,0-0.1,0-0.2,0H458v36h58.7v-36h-28.2c-0.3,0-0.5,0-0.8-0.1v20.9c0,1.3-1,2.3-2.3,2.3h-13.5
		c-1.3,0-2.3-1-2.3-2.3L469.6,386.4z M465.2,392.5c-0.1,0-0.3,0.1-0.4,0.1l0,0c-0.1,0.1-0.1,0.2-0.1,0.4s0.1,0.3,0.1,0.4l0,0
		c0.1,0.1,0.2,0.1,0.4,0.1s0.3-0.1,0.4-0.1l0,0c0.1-0.1,0.1-0.2,0.1-0.4s-0.1-0.3-0.1-0.4l0,0C465.4,392.5,465.3,392.5,465.2,392.5z
		 M462.8,390.7L462.8,390.7c0.6-0.6,1.4-1,2.3-1c0.9,0,1.7,0.4,2.3,1l0,0c0.6,0.6,1,1.4,1,2.3c0,0.9-0.4,1.7-1,2.3l0,0
		c-0.6,0.6-1.4,1-2.3,1c-0.9,0-1.7-0.4-2.3-1l0,0c-0.6-0.6-1-1.4-1-2.3C461.9,392.1,462.2,391.3,462.8,390.7z M465.1,416.6
		c-0.1,0-0.3,0.1-0.4,0.1l0,0c-0.1,0.1-0.1,0.2-0.1,0.4s0.1,0.3,0.1,0.4l0,0c0.1,0.1,0.2,0.1,0.4,0.1s0.3-0.1,0.4-0.1l0,0
		c0.1-0.1,0.1-0.2,0.1-0.4s-0.1-0.3-0.1-0.4l0,0C465.4,416.7,465.3,416.6,465.1,416.6z M462.8,414.8L462.8,414.8
		c0.6-0.6,1.4-1,2.3-1c0.9,0,1.7,0.4,2.3,1l0,0c0.6,0.6,1,1.4,1,2.3c0,0.9-0.4,1.7-1,2.3l0,0c-0.6,0.6-1.4,1-2.3,1
		c-0.9,0-1.7-0.4-2.3-1l0,0c-0.6-0.6-1-1.4-1-2.3C461.8,416.2,462.2,415.4,462.8,414.8z M510.5,392.2c-0.1,0-0.3,0.1-0.4,0.1l0,0
		c-0.1,0.1-0.1,0.2-0.1,0.4s0.1,0.3,0.1,0.4l0,0c0.1,0.1,0.2,0.1,0.4,0.1s0.3-0.1,0.4-0.1l0,0c0.1-0.1,0.1-0.2,0.1-0.4
		s-0.1-0.3-0.1-0.4l0,0C510.7,392.2,510.6,392.2,510.5,392.2z M508.1,390.4L508.1,390.4c0.6-0.6,1.4-1,2.3-1c0.9,0,1.7,0.4,2.3,1
		l0,0c0.6,0.6,1,1.4,1,2.3c0,0.9-0.4,1.7-1,2.3l0,0c-0.6,0.6-1.4,1-2.3,1c-0.9,0-1.7-0.4-2.3-1l0,0c-0.6-0.6-1-1.4-1-2.3
		C507.1,391.8,507.5,390.9,508.1,390.4L508.1,390.4z M510.4,416.3c-0.1,0-0.3,0.1-0.4,0.1l0,0c-0.1,0.1-0.1,0.2-0.1,0.4
		s0.1,0.3,0.1,0.4l0,0c0.1,0.1,0.2,0.1,0.4,0.1s0.3-0.1,0.4-0.1l0,0c0.1-0.1,0.1-0.2,0.1-0.4s-0.1-0.3-0.1-0.4l0,0
		C510.7,416.3,510.6,416.3,510.4,416.3z M508.1,414.5L508.1,414.5c0.6-0.6,1.4-1,2.3-1c0.9,0,1.7,0.4,2.3,1l0,0c0.6,0.6,1,1.4,1,2.3
		c0,0.9-0.4,1.7-1,2.3l0,0c-0.6,0.6-1.4,1-2.3,1c-0.9,0-1.7-0.4-2.3-1l0,0c-0.6-0.6-1-1.4-1-2.3
		C507.1,415.9,507.5,415.1,508.1,414.5L508.1,414.5z M450.5,382.9H250.3v43.1c0,2.1-1.7,3.7-3.7,3.7h-66.2c-2.1,0-3.7-1.7-3.7-3.7
		v-43.1H121v62.7c5.8-2.1,9.1,0,11.6,3.9c1.1,1.7,1.8,3.5,2.6,5.5c1.1,2.9,2.3,6,4.4,7.5c1.3,0.9,3.2,1.6,5.2,2.3
		c6.5,2.3,13.1,4.6,12.5,15.3h383.2c-0.7-10.8,5.9-13.2,12.4-15.5c2-0.7,3.9-1.4,5.2-2.3c2.1-1.5,3.3-4.7,4.4-7.5
		c0.8-2,1.5-3.8,2.6-5.5c2.5-3.9,5.8-6,11.7-3.9v-62.5h-52.7v43.2c0,2.1-1.7,3.7-3.7,3.7h-66.2c-2.1,0-3.7-1.7-3.7-3.7L450.5,382.9
		L450.5,382.9z M217.7,372.8v31.9h8.8v-31.9H217.7z M235.7,358h-27.1v10.1h27.1V358z M213,386.1c-0.2,0-0.5,0.1-0.8,0.1h-28.2v36
		h58.7v-36h-11.5c-0.1,0-0.1,0-0.2,0V407c0,1.3-1,2.3-2.3,2.3h-13.5c-1.3,0-2.3-1-2.3-2.3L213,386.1L213,386.1z M235.6,389.5
		c0.9,0,1.7,0.4,2.3,1l0,0c0.6,0.6,1,1.4,1,2.3c0,0.9-0.4,1.7-1,2.3l0,0c-0.6,0.6-1.4,1-2.3,1c-0.9,0-1.7-0.4-2.3-1l0,0
		c-0.6-0.6-1-1.4-1-2.3c0-0.9,0.4-1.7,1-2.3l0,0C233.9,389.9,234.7,389.5,235.6,389.5z M235.9,392.4c-0.1-0.1-0.2-0.1-0.4-0.1
		s-0.3,0.1-0.4,0.1l0,0c-0.1,0.1-0.1,0.2-0.1,0.4s0.1,0.3,0.1,0.4l0,0c0.1,0.1,0.2,0.1,0.4,0.1s0.3-0.1,0.4-0.1l0,0
		c0.1-0.1,0.1-0.2,0.1-0.4S236,392.5,235.9,392.4L235.9,392.4z M235.6,413.6c0.9,0,1.7,0.4,2.3,1l0,0c0.6,0.6,1,1.4,1,2.3
		c0,0.9-0.4,1.7-1,2.3l0,0c-0.6,0.6-1.4,1-2.3,1c-0.9,0-1.7-0.4-2.3-1l0,0c-0.6-0.6-1-1.4-1-2.3c0-0.9,0.4-1.7,1-2.3l0,0
		C233.9,414,234.7,413.6,235.6,413.6z M236,416.6c-0.1-0.1-0.2-0.1-0.4-0.1s-0.3,0.1-0.4,0.1l0,0c-0.1,0.1-0.1,0.2-0.1,0.4
		s0.1,0.3,0.1,0.4l0,0c0.1,0.1,0.2,0.1,0.4,0.1s0.3-0.1,0.4-0.1l0,0c0.1-0.1,0.1-0.2,0.1-0.4S236.1,416.7,236,416.6L236,416.6z
		 M190.3,389.2c0.9,0,1.7,0.4,2.3,1l0,0c0.6,0.6,1,1.4,1,2.3c0,0.9-0.4,1.7-1,2.3l0,0c-0.6,0.6-1.4,1-2.3,1c-0.9,0-1.7-0.4-2.3-1
		l0,0c-0.6-0.6-1-1.4-1-2.3c0-0.9,0.4-1.7,1-2.3l0,0C188.6,389.6,189.4,389.2,190.3,389.2z M190.6,392.2c-0.1-0.1-0.2-0.1-0.4-0.1
		s-0.3,0.1-0.4,0.1l0,0c-0.1,0.1-0.1,0.2-0.1,0.4s0.1,0.3,0.1,0.4l0,0c0.1,0.1,0.2,0.1,0.4,0.1s0.3-0.1,0.4-0.1l0,0
		c0.1-0.1,0.1-0.2,0.1-0.4S190.8,392.3,190.6,392.2L190.6,392.2z M190.3,413.3c0.9,0,1.7,0.4,2.3,1l0,0c0.6,0.6,1,1.4,1,2.3
		c0,0.9-0.4,1.7-1,2.3l0,0c-0.6,0.6-1.4,1-2.3,1c-0.9,0-1.7-0.4-2.3-1l0,0c-0.6-0.6-1-1.4-1-2.3c0-0.9,0.4-1.7,1-2.3l0,0
		C188.6,413.7,189.4,413.3,190.3,413.3z M190.7,416.3c-0.1-0.1-0.2-0.1-0.4-0.1s-0.3,0.1-0.4,0.1l0,0c-0.1,0.1-0.1,0.2-0.1,0.4
		s0.1,0.3,0.1,0.4l0,0c0.1,0.1,0.2,0.1,0.4,0.1s0.3-0.1,0.4-0.1l0,0c0.1-0.1,0.1-0.2,0.1-0.4S190.8,416.4,190.7,416.3L190.7,416.3z
		 M553.7,333.1c0.5,4.2,4,5.5,7.4,6.7c2.5,0.9,4.9,1.7,7.1,3.3c3.9,2.8,5.5,7,7,10.9c0.6,1.6,1.2,3.2,1.9,4.2
		c0.8,1.2,2.3,1.5,6.2-0.8V339c0-2.6,0,0.8,0-0.8c0-2.8,0-5-6.6-5L553.7,333.1z M121,453.7v18.4c0,3.6,0.7,5.6,2.1,6.5
		c1.7,1.2,4.9,1.5,9.1,1.5h17.6c0.3-5.6-3.6-6.9-7.5-8.3c-2.5-0.9-4.9-1.7-7.1-3.3c-3.9-2.8-5.5-7-7-10.9c-0.6-1.6-1.2-3.2-1.9-4.2
		C125.6,452.3,124.3,452,121,453.7L121,453.7z M548,480.1h22.6c6.3,0,6.3-6.4,6.3-14.7c0-3.4,0,3.4,0-1.7v-10.1
		c-3.3-1.8-4.7-1.5-5.4-0.3c-0.7,1-1.2,2.6-1.9,4.2c-1.5,3.8-3.1,8-7,10.9c-2.2,1.6-4.6,2.5-7.1,3.3
		C551.6,473.1,547.6,474.4,548,480.1L548,480.1z"/>
</g>
</svg>
