<svg id="Layer_1" data-name="Layer 1" xmlns="http://www.w3.org/2000/svg" viewBox="0 0 400 338.61"><title>medic-bag</title><path d="M504.14,326.92a3.24,3.24,0,0,1,.49,1.33c.08.55.15,1.1.22,1.66l5.1-.09c0-2.7,0-5.39-.05-8.09q-2.86,2.63-5.77,5.2ZM200.64,171.45a2,2,0,0,1,.77-3.89l9.31,1.89a2,2,0,1,1-.77,3.88l-9.3-1.88Zm297.3,201.41a6.05,6.05,0,0,1,4.48,2,6.87,6.87,0,0,1,0,9.25,6,6,0,0,1-9,0,6.9,6.9,0,0,1,0-9.25A6.07,6.07,0,0,1,497.94,372.86Zm1.56,4.69a2.14,2.14,0,0,0-1.56-.72,2.09,2.09,0,0,0-1.56.72,2.83,2.83,0,0,0-.73,1.94,2.87,2.87,0,0,0,.73,1.95,2.13,2.13,0,0,0,1.56.72,2.09,2.09,0,0,0,1.56-.72,3,3,0,0,0,0-3.89Zm-1.14-134.17a6.05,6.05,0,0,1,4.48,2,6.87,6.87,0,0,1,0,9.25,6,6,0,0,1-9,0,6.9,6.9,0,0,1,0-9.25A6.06,6.06,0,0,1,498.36,243.38Zm1.56,4.69a2.06,2.06,0,0,0-3.13,0,3,3,0,0,0,0,3.89,2.15,2.15,0,0,0,1.57.72,2.09,2.09,0,0,0,1.56-.72,2.83,2.83,0,0,0,.73-1.94A2.87,2.87,0,0,0,499.92,248.07ZM496.37,219a6.05,6.05,0,0,1,4.48,2,6.84,6.84,0,0,1,1.79,4.63,6.77,6.77,0,0,1-1.79,4.62,6,6,0,0,1-9,0,6.9,6.9,0,0,1,0-9.25A6.07,6.07,0,0,1,496.37,219Zm1.56,4.69a2.13,2.13,0,0,0-1.56-.72,2.09,2.09,0,0,0-1.56.72,3,3,0,0,0,0,3.89,2.14,2.14,0,0,0,1.56.72,2.09,2.09,0,0,0,1.56-.72,3,3,0,0,0,0-3.89ZM191.7,157.77s0-.07,0-.09l.39-1c-.13-9.93.36-17.93,1.73-23.62,1.72-7.22,4.94-11.2,10.06-11.39h.3a22.69,22.69,0,0,1,8.26-.3L501.1,110.7a2.92,2.92,0,0,1,1,.13h0a57,57,0,0,1,19.2,9.72,34,34,0,0,1,13,23.64,3,3,0,0,1,0,.42l.33,32.12a3.16,3.16,0,0,1,.47.62c9.59,15.84,14.67,40.25,14.84,63.27.17,22.53-4.4,43.92-14.1,55l1.11,108a3.17,3.17,0,0,1-2.81,3.17h0c-23,2.7-42.49,4.6-60.85,6.37-27,2.62-51.54,5-82.93,9.64l-.18.18c-7.22,7.31-26.38,13.79-50.71,18.26a421.25,421.25,0,0,1-59.29,6.25,27.94,27.94,0,0,1-4.54.14c-5.73.15-11.45.18-17.1.08l-2.09.46c-6.61,1.49-7.71,1.74-15.39-.37-3.68-1,1,.29-1.59-.42l-2.53-.69c-16.13-1.31-31.08-3.85-43.38-7.88-12.85-4.22-22.9-10.13-28.53-18-15.39-21.57-17.45-60-13.05-101.62,6.55-62,27.41-131.33,39.68-161.36Zm6.76-2.11a66.91,66.91,0,0,1,11.27,1.07,98.74,98.74,0,0,1,16.09,4.4h0a2.6,2.6,0,0,1,.89.5h0l0,0h0l0,0h0s0,0,0,.05h0l0,0,.1.1,0,0,.08.07,0,0,0,0,0,.05h0l0,0,0,0,0,0,.05.07h0l0,.07,0,.07,0,0v0l0,0,0,0,0,0,0,0,0,.08,0,.07v0l0,.05v0a.14.14,0,0,0,0,.06s0,.09.05.14h0a3,3,0,0,1,.16.9h0v.61a.2.2,0,0,1,0,.07s0,.05,0,.08h0a.8.8,0,0,1,0,.15h0a.14.14,0,0,0,0,.07h0l0,.07h0s0,0,0,.06v0h0v0l-.06.13c-5.05,12.08-8,33.57-11.33,58.14-2.22,16.25-4.61,33.81-7.9,50.91a.88.88,0,0,0,0,.16c2.2,23.15,4.33,47.82,5.88,73.13s2.53,51.52,2.43,77.68c0,8.31,11.9,12.37,21.39,15,1.64.14,3.28.25,4.94.35a850,850,0,0,0,4.15-89c0-31.2-1.29-63-3-95.31-3.76-8.57-6.31-18.73-8.18-29.59-2-11.79-3.28-24.52-4.49-36.84-1.75-17.82-3.4-34.76-7.34-46.65-2.9-8.77-7.13-14.61-13.85-15.52l-5.1.19c-.84.17-1.71.38-2.62.66-1.08.94-2,3-2.67,5.91-1.19,5-1.64,12.13-1.56,21.12Zm22.16,10.4a85.9,85.9,0,0,0-12-3.07,60.42,60.42,0,0,0-11.8-1c-12.22,30.6-32.15,97.67-38.5,157.74-4.26,40.26-2.45,77.19,11.9,97.31,4.79,6.7,13.73,11.85,25.33,15.67a148.27,148.27,0,0,0,21.15,5.05c-3.77-3.08-6.29-7.09-6.27-12.46,0-1,0-2,0-3a2.5,2.5,0,0,1-.41-.19,29.91,29.91,0,0,1-12.12-12.4,48.22,48.22,0,0,1-4.88-16.4c-1.11-8.25-.89-17.08-.68-25.46.07-3,.14-5.89.15-8.6A370.93,370.93,0,0,1,195,319.44c1.69-15.07,4.13-30.34,7-45.2,3.42-17.46,5.83-35.22,8.07-51.61,3.15-23.09,5.93-43.5,10.55-56.58Zm-16.37,132c-1.15,7.37-2.15,14.76-3,22.08a369,369,0,0,0-2.43,39.11c0,2.89-.08,5.79-.15,8.74-.2,8.12-.41,16.69.63,24.47a42.54,42.54,0,0,0,4.18,14.27,24.05,24.05,0,0,0,6.92,8.11c-.16-22.41-1.07-44.87-2.41-66.79-1-17.12-2.35-33.86-3.76-50Zm310.89,18.78a3.09,3.09,0,0,1,1.06,2.34c.06,4.58.08,9.15.09,13.72v0q0,11.73-.21,23.37-.35,18.6-1.17,36.84a3.19,3.19,0,0,1-2.06,2.84,34.8,34.8,0,0,1-13.35,2.92,30.67,30.67,0,0,1-12.94-3,3.2,3.2,0,0,1-1.85-3c.05-9.38.18-18.64.34-27.83a2.73,2.73,0,0,1-.1-.76,3.12,3.12,0,0,1,.13-1q.12-5.78.22-11.53l.18-9c-9.2,7.57-18.59,15-28,22.4-20.42,16.13-40.87,32.28-59.45,50.06,27.33-3.84,50-6,74.69-8.43,17.29-1.67,35.63-3.45,57.9-6l-1-98.33q-7,7.4-14.46,14.41ZM491.9,337.44c-.09,4.82-.17,9.65-.27,14.47q-.09,4.56-.17,9.12l18.19-.34c0-1.49.07-3,.09-4.48q.19-10,.21-20.08l-4.58.09c.05,1.28.08,2.56.05,3.85a47.7,47.7,0,0,1-1.1,10.12,3.18,3.18,0,0,1-6.19-1.45,41.51,41.51,0,0,0,1-8.75c0-1.21,0-2.43-.07-3.65l-4.61.09a3.15,3.15,0,0,1-1.11-.18l-1.41,1.19ZM302.68,439.71c12.57-1.11,24.69-2.73,35.68-4.75,23.13-4.24,41.06-10.11,47.34-16.47l.39-.4a3.16,3.16,0,0,1,1-1c20.47-20.54,43.5-38.74,66.49-56.9,27.37-21.61,54.7-43.18,77.36-68.56,8.76-9.8,12.88-29.75,12.72-51A161.2,161.2,0,0,0,542.15,220a62.55,62.55,0,0,1-2.35,7.26c-5.4,13.82-15.64,27.08-25.63,38.25q-11,12.33-22.81,24.15a2.86,2.86,0,0,1-.43.42c-54.34,54.48-119.44,101.06-179.69,144.17l-1.53,1.1a67.84,67.84,0,0,1-7,4.33Zm.91-7.87c.87-.55,1.69-1.1,2.43-1.63l1.54-1.1,5.17-3.71-1.06,0a30.61,30.61,0,0,1-13.38-3.25,3.16,3.16,0,0,1-1.8-3.15c0-10.11.18-20.08.35-30a3.17,3.17,0,0,1-.11-.76,3,3,0,0,1,.14-1q.11-6.28.23-12.54c.58-31,1.15-61.86-.28-94.4l-8.3.78c-17.49,3-29.22-2.37-37.3-12.75,1.37,28.09,2.34,55.88,2.36,83.34a853.9,853.9,0,0,1-4.34,91.18,25.85,25.85,0,0,0,5.85-.93l2.45-.56c8.27-1.8,16.09-3.45,23.89-5.08,6.88-1.43,14.07-2.88,21.64-4.41a4.35,4.35,0,0,1,.52-.06Zm24.11-17.16c53.88-38.71,110.2-80.52,158-128.31q-.21-11.53-.78-23.45L326.57,277.59q1.5,23.42,2,46.57c.73,30.5.31,60.63-.89,90.53ZM491.92,280.1q8.08-8.31,15.8-16.84-.8-12-1.85-23.71-1-10.8-2.3-22.17a17.73,17.73,0,0,0-7.11-.95,29.19,29.19,0,0,0-8.75,2c1.36,11.66,2.34,23.05,3,34.24.57,9.22.95,18.34,1.19,27.39ZM516,253.68a135.49,135.49,0,0,0,12.91-18.4L528,144.72a27.84,27.84,0,0,0-10.65-19.26,50.22,50.22,0,0,0-16.56-8.4L222.94,127.34c3.07,3.46,5.46,8.24,7.36,14,4.13,12.48,5.82,29.81,7.61,48,1.18,12.11,2.4,24.63,4.44,36.37,5.19,30,15.7,54.2,45.13,49.11l.25,0,8.8-.81c-.76-14.68-1.95-29.72-3.74-45.31a3.19,3.19,0,0,1,1.76-3.21,36.72,36.72,0,0,1,13.62-3.8,23.05,23.05,0,0,1,12.23,2.44,3.17,3.17,0,0,1,1.68,2.46h0q2.52,22.47,4.05,44.67L484.62,256.6l-.21-3.51c-.73-11.72-1.8-23.75-3.29-36.22a3.17,3.17,0,0,1,1.81-3.25,37,37,0,0,1,13.18-3.5,23.14,23.14,0,0,1,11.81,2.25,3.18,3.18,0,0,1,1.76,2.59q1.38,11.76,2.49,24c.47,5,.87,10,1.25,14.95l2.58-.24Zm19.11-32.14c2.81-8.77,3.25-17.66-.27-26.17ZM509.5,367l-18.16.35c-.13,7.81-.24,15.64-.29,23.54a23.23,23.23,0,0,0,8.44,1.65,26.82,26.82,0,0,0,9.16-1.75q.53-11.91.84-23.78Zm-197,30.65a6.09,6.09,0,0,1,4.49,2,6.89,6.89,0,0,1,0,9.24,6,6,0,0,1-9,0,6.86,6.86,0,0,1,0-9.24A6,6,0,0,1,312.49,397.69Zm1.56,4.69a2.14,2.14,0,0,0-1.56-.72,2.09,2.09,0,0,0-1.56.72,2.94,2.94,0,0,0,0,3.88,2.13,2.13,0,0,0,1.56.72,2.09,2.09,0,0,0,1.56-.72,2.94,2.94,0,0,0,0-3.88ZM310.13,255a6.05,6.05,0,0,1,4.48,2,6.87,6.87,0,0,1,0,9.25,6,6,0,0,1-9,0,6.9,6.9,0,0,1,0-9.25,6.07,6.07,0,0,1,4.49-2Zm1.56,4.69a2.06,2.06,0,0,0-3.13,0,2.87,2.87,0,0,0-.72,1.94,2.92,2.92,0,0,0,.72,2,2.17,2.17,0,0,0,1.57.72,2.09,2.09,0,0,0,1.56-.72,3,3,0,0,0,0-3.89Zm-3.55-29.07a6.09,6.09,0,0,1,4.49,2,6.89,6.89,0,0,1,0,9.24,6,6,0,0,1-9,0,6.86,6.86,0,0,1,0-9.24A6,6,0,0,1,308.14,230.58Zm1.56,4.69a2.14,2.14,0,0,0-1.56-.72,2.09,2.09,0,0,0-1.56.72,2.83,2.83,0,0,0-.73,1.94,2.89,2.89,0,0,0,.73,1.95,2.15,2.15,0,0,0,1.56.71,2.12,2.12,0,0,0,1.56-.71,3,3,0,0,0,0-3.89Zm-6.86,38.15,17-1.57q-1.47-21.26-3.85-42.78a17.55,17.55,0,0,0-7.43-1,28.83,28.83,0,0,0-9.19,2.26c1.66,14.82,2.77,29.14,3.5,43.14Zm17.4,4.75-17.1,1.58c1.09,24.64,1,48.29.69,71.8l6.93-.14c-.18-1.48-.39-2.93-.63-4.31a3.17,3.17,0,0,1,6.26-1.06c.28,1.67.53,3.43.74,5.24l5.47-.11q0-13.4-.35-26.87-.54-22.92-2-46.14Zm-2.62,79.44c.05,1,.08,2,.08,2.95a55.26,55.26,0,0,1-1.14,12.32,3.17,3.17,0,1,1-6.18-1.37,49.32,49.32,0,0,0,1-10.9c0-.95,0-1.91-.08-2.87l-7.56.14c-.09,5.66-.2,11.3-.3,16.95-.07,3.38-.12,6.75-.18,10.14l19-.38q.29-13.51.32-27.08l-5,.1Zm4.51,33.32-19,.39c-.13,8.59-.25,17.23-.3,25.93a23.22,23.22,0,0,0,8.84,1.83,26.71,26.71,0,0,0,9.57-1.93q.54-13.08.88-26.21ZM385.24,127a61.6,61.6,0,0,1,18.64,1.89,67.85,67.85,0,0,1,17.86,7.46A69.28,69.28,0,0,1,438,149.71a63.87,63.87,0,0,1,11,17.38,55.84,55.84,0,0,1,4.49,22.06,47.64,47.64,0,0,1-4.81,21A45.17,45.17,0,0,1,432.79,228a51.33,51.33,0,0,1-23.48,7.9,62.06,62.06,0,0,1-26.39-3.4,69,69,0,0,1-23.55-14.22,65.84,65.84,0,0,1-14.61-19.68,56.76,56.76,0,0,1-5.83-22.74,47.72,47.72,0,0,1,3.13-19.24,44.66,44.66,0,0,1,10.68-15.84,47.41,47.41,0,0,1,14.72-9.65A53.15,53.15,0,0,1,385.24,127Zm17.08,8a54.79,54.79,0,0,0-16.74-1.69,47,47,0,0,0-15.66,3.55,41.12,41.12,0,0,0-12.77,8.37A38.18,38.18,0,0,0,348,158.9a41.54,41.54,0,0,0-2.7,16.72,50.58,50.58,0,0,0,5.2,20.18,59.49,59.49,0,0,0,13.2,17.77A62.32,62.32,0,0,0,385,226.47a55.79,55.79,0,0,0,23.7,3.08,45,45,0,0,0,20.6-6.9A39.12,39.12,0,0,0,443,207.29a41.35,41.35,0,0,0,4.15-18.15,49.31,49.31,0,0,0-4-19.55,57.41,57.41,0,0,0-9.9-15.65,62.57,62.57,0,0,0-14.79-12.1,61.21,61.21,0,0,0-16.17-6.77Zm-22.13,7.3,16.94-1a3.16,3.16,0,0,1,3.25,2.35c2,7.64-.69-2.59,1.38,5.18l2.79,10.44,8-.54,10.4-.7a3.17,3.17,0,0,1,3.26,2.28l.88,2.49q2.52,7.25,5.26,15a3.19,3.19,0,0,1-2.76,4.21h0l-10.84.81-7.81.58q2.61,9.84,5.49,20.64A3.17,3.17,0,0,1,414.2,208a2.53,2.53,0,0,1-.55.09h0l-19.28,1.6-2,.16a3.18,3.18,0,0,1-3.41-2.71q-1-5.4-2.05-10.57c-.57-2.94-1.12-5.73-2.17-11.15l-8.69.65-11.67.86A3.17,3.17,0,0,1,361,184c-.2-1.79-.63-5.75-1.06-9.64-.23-2.07-.46-4.11-1-8.62a3.18,3.18,0,0,1,2.82-3.49H362l10.67-.72L380,161l-1.63-8.35c-.18-1,.27,1.38-1.26-6.48a3.17,3.17,0,0,1,2.52-3.71l.5-.06Zm8.81,5.81-4.91.3.57,2.92c.52,2.68,1.06,5.44,2.3,11.84a3.47,3.47,0,0,1,.06.45,3.17,3.17,0,0,1-3,3.38l-11,.74-7.37.49.59,5.33c.2,1.83.41,3.71.74,6.72l8.62-.64,11.39-.84a3.18,3.18,0,0,1,3.44,2.55c.33,1.67,1.5,7.75,2.71,13.94l1.53,7.9L409.37,202q-2.47-9.3-4.75-17.87l-.7-2.63a3.59,3.59,0,0,1-.14-.74,3.17,3.17,0,0,1,2.92-3.4l11.64-.87L425,176c-1.34-3.81-2.63-7.5-3.89-11.11l-.13-.36-8,.54-10.53.71a3.18,3.18,0,0,1-3.39-2.34c-.51-1.91-2-7.59-3.47-13-1-3.88,1.11,4.16-.71-2.65l-5.92.37Z" transform="translate(-149.97 -110.7)"/></svg>