<?xml version="1.0" encoding="utf-8"?>
<!-- Generator: Adobe Illustrator 24.0.3, SVG Export Plug-In . SVG Version: 6.00 Build 0)  -->
<svg version="1.1" id="Layer_1" xmlns="http://www.w3.org/2000/svg" xmlns:xlink="http://www.w3.org/1999/xlink" x="0px" y="0px"
	 viewBox="0 0 700 700" style="enable-background:new 0 0 700 700;" xml:space="preserve">
<g>
	<path d="M631.7,484.8c-1.9-1.2-3.9-3.1-4.2-4.6l-2.9-5.7c-1.3-2.1-2.6-4.2-5.2-5.2l-89.5-49.8l-1.5,0.3c-1.2,1.9-6.7,5.5-22.7-5.2
		c-1.3-2.1-14.8-22.9-21.5-27.8l-0.3-1.5l3.7-8l-0.3-1.5l-8.2-4.5c-0.8,0.2-0.9-0.6-0.3-1.5l0.6-0.9l-0.3-1.5l-8-3.7l-0.8,0.2
		l-0.8,0.2l-7.7-2.2c-0.8,0.2-0.9-0.6-0.3-1.5l1-2.6l-0.3-1.5l-8.8-3.6c-0.8,0.2-0.9-0.6-0.3-1.5l1.2-1.9l-0.3-1.5l-9-4.3
		c-0.8,0.2-0.9-0.6-0.3-1.5l2.2-4.5l-0.3-1.5l-8-3.7c-0.8,0.2-0.9-0.6-0.3-1.5l1.6-3.6l-0.3-1.5l-3.7-2.3c-0.8,0.2-0.9-0.6-0.3-1.5
		l5.5-10.8c-0.2-0.8,0.6-0.9,1.5-0.3l0.9,0.6c0.8-0.2,0.9,0.6,0.3,1.5l0.3,1.5l2.8,1.8l1.5-0.3l0.6-0.9c-0.2-0.8,0.6-0.9,1.5-0.3
		l0.8-0.2c0.8-0.2,0.9,0.6,0.3,1.5l-0.6,0.9l0.3,1.5l15.3,7.7l1.5-0.3l7.1-14.4l-0.3-1.5l-15.3-7.7l-1.5,0.3l-0.6,0.9
		c0.2,0.8-0.6,0.9-1.5,0.3l-17.9-8.7c-0.8,0.2-0.9-0.6-0.3-1.5l-0.3-1.5l-7.1-3.2l-1.5,0.3l0.2,0.8c0.2,0.8-0.6,0.9-1.5,0.3l-17-8.1
		c-0.8,0.2-0.9-0.6-0.3-1.5l-0.3-1.5l-9.9-4.9l-1.5,0.3l-6.1,11.8l0.3,1.5l10.8,5.5c0.8-0.2,0.9,0.6,0.3,1.5
		c-0.6,0.9,0.2,0.8,0.3,1.5l3.6,1.6l1.5-0.3l0.6-0.9c-0.2-0.8,0.6-0.9,1.5-0.3c0.9,0.6,1.1,1.3,0.5,2.3l-7.1,14.4
		c-0.6,0.9-1.3,1.1-2.3,0.5l-10.8-5.5l-1.5,0.3l-2.2,4.5c0.2,0.8-0.6,0.9-1.5,0.3l-15-6.2c-0.9-0.6-1.7-0.4-2.3,0.5
		c0,0-0.6,0.9-1.5,0.3l-2.8-1.8l-1.5,0.3l-0.6,0.9c0,0-0.6,0.9-1.5,0.3l-3.7-2.3l-0.8,0.2l-1.5,0.3l-0.8,0.2L29.6,146.8l-4.7,10.7
		l163.1,81.6c2.6,1,4.1,3.9,3.1,6.5c-1,2.6,0,7.2,4.9,10.9c8,7,215.2,124.8,234.4,135.5c0.9,0.6,1.1,1.3,1.5,2.9
		c0.2,0.8-0.2,2.4-1.6,3.6c0,0-8,10.6,2.6,18.5l15.3,7.7c0,0,10.1,2.5,15.6-8.4c0,0,2.2-4.5,7.3,0.7c5.2,5.2,23.2,17.8,18.4,42.1
		c-0.8,3.4,1.6,6.8,4.2,7.8l18.8,5.3c1.7,0.4,4-0.1,6.1-1.4l1.3-1.1c2.1-1.3,5.1-2,7.2,0c0.9,0.6,2.8,1.8,4.1,3.9
		c3.3,4,72.9,78.3,92.9,99.3c2.2,2.7,6.9,2.4,8.5-1.1c9-16.4,32.1-58.4,35.6-60.8C671.4,508.4,641,490.7,631.7,484.8L631.7,484.8z
		 M446.6,421.8l-10.8-5.5c-4.5-2.2-6.5-7.3-4.3-11.8c2-5.2,7.9-7.4,12.5-4.5l3.7,2.3c0.9,3.8,0.6,9.4-5.3,11.6
		c-1.5,0.3-1,2.6-0.1,3.2l0.8-0.2c0,0,8.9,0.4,10.8-12l0.9,0.6c4.5,2.2,6.5,7.3,4.3,11.8C457,421.8,451.1,423.9,446.6,421.8
		L446.6,421.8z"/>
</g>
</svg>
