<?xml version="1.0" encoding="utf-8"?>
<!-- Generator: Adobe Illustrator 24.0.3, SVG Export Plug-In . SVG Version: 6.00 Build 0)  -->
<svg version="1.1" id="Layer_1" xmlns="http://www.w3.org/2000/svg" xmlns:xlink="http://www.w3.org/1999/xlink" x="0px" y="0px"
	 viewBox="0 0 400 300" style="enable-background:new 0 0 400 300;" xml:space="preserve">
<g>
	<path d="M377.2,227.3c-1.2-0.7-2.4-1.9-2.6-2.9l-1.8-3.5c-0.8-1.3-1.6-2.6-3.2-3.2l-55.6-31l-0.9,0.2c-0.7,1.2-4.2,3.4-14.1-3.2
		c-0.8-1.3-9.2-14.2-13.4-17.3l-0.2-1l2.3-5l-0.2-0.9l-5.1-2.8c-0.5,0.1-0.6-0.4-0.2-0.9l0.4-0.6l-0.2-0.9l-5-2.3l-0.5,0.1l-0.5,0.1
		l-4.8-1.4c-0.5,0.1-0.6-0.4-0.2-0.9l0.6-1.6l-0.2-0.9l-5.5-2.2c-0.5,0.1-0.6-0.4-0.2-0.9l0.7-1.2l-0.2-0.9l-5.6-2.7
		c-0.5,0.1-0.6-0.4-0.2-0.9l1.4-2.8l-0.2-0.9l-5-2.3c-0.5,0.1-0.6-0.4-0.2-0.9l1-2.2l-0.2-0.9l-2.3-1.4c-0.5,0.1-0.6-0.4-0.2-0.9
		l3.4-6.7c-0.1-0.5,0.4-0.6,0.9-0.2l0.6,0.4c0.5-0.1,0.6,0.4,0.2,0.9l0.2,0.9l1.7,1.1l0.9-0.2l0.4-0.6c-0.1-0.5,0.4-0.6,0.9-0.2
		l0.5-0.1c0.5-0.1,0.6,0.4,0.2,0.9l-0.4,0.6l0.2,0.9l9.5,4.8l0.9-0.2l4.4-9l-0.2-0.9l-9.5-4.8l-0.9,0.2l-0.4,0.6
		c0.1,0.5-0.4,0.6-0.9,0.2l-11.1-5.4c-0.5,0.1-0.6-0.4-0.2-0.9l-0.2-0.9l-4.4-2l-0.9,0.2l0.1,0.5c0.1,0.5-0.4,0.6-0.9,0.2l-10.6-5
		c-0.5,0.1-0.6-0.4-0.2-0.9l0.1-1.3l-6.2-3l-0.9,0.2l-3.8,7.3l0.2,0.9l6.7,3.4c0.5-0.1,0.6,0.4,0.2,0.9c-0.4,0.6,0.1,0.5,0.2,0.9
		l2.2,1l0.9-0.2l0.4-0.6c-0.1-0.5,0.4-0.6,0.9-0.2c0.6,0.4,0.7,0.8,0.3,1.4l-4.4,9c-0.4,0.6-0.8,0.7-1.4,0.3l-6.7-3.4l-0.9,0.2
		l-1.4,2.8c0.1,0.5-0.4,0.6-0.9,0.2l-9.3-3.9c-0.6-0.4-1.1-0.2-1.4,0.3c0,0-0.4,0.6-0.9,0.2l-1.7-1.1l-0.9,0.2l-0.4,0.6
		c0,0-0.4,0.6-0.9,0.2l-2.3-1.4l-0.5,0.1l-0.9,0.2l-0.5,0.1L3.2,17.1l-2.9,6.7l101.1,50.7c1.6,0.6,2.5,2.4,1.9,4s0,4.5,3,6.8
		c5,4.4,133.8,77.6,145.7,84.2c0.6,0.4,0.7,0.8,0.9,1.8c0.1,0.5-0.1,1.5-1,2.2c0,0-5,6.6,1.6,11.5l9.5,4.8c0,0,6.3,1.6,9.7-5.2
		c0,0,1.4-2.8,4.5,0.4c3.2,3.2,14.4,11.1,11.4,26.2c-0.5,2.1,1,4.2,2.6,4.8l11.7,3.3c1.1,0.2,2.5-0.1,3.8-0.9l0.8-0.7
		c1.3-0.8,3.2-1.2,4.5,0c0.6,0.4,1.7,1.1,2.5,2.4c2.1,2.5,45.3,48.7,57.7,61.7c1.4,1.7,4.3,1.5,5.3-0.7c5.6-10.2,20-36.3,22.1-37.8
		C401.9,241.9,383,230.9,377.2,227.3L377.2,227.3z M262.2,188.1l-6.7-3.4c-2.8-1.4-4-4.5-2.7-7.3c1.2-3.2,4.9-4.6,7.8-2.8l2.3,1.4
		c0.6,2.4,0.4,5.8-3.3,7.2c-0.9,0.2-0.6,1.6-0.1,2l0.5-0.1c0,0,5.5,0.2,6.7-7.5l0.6,0.4c2.8,1.4,4,4.5,2.7,7.3
		C268.6,188.1,265,189.4,262.2,188.1L262.2,188.1z"/>
</g>
</svg>
